<svg height="447pt" viewBox="0 -49 447.514 447" width="447pt" xmlns="http://www.w3.org/2000/svg"><path d="m426.34375.257812h-405.175781c-11.6875.011719-21.1562502 9.480469-21.167969 21.167969v213.664063c.0117188 11.683594 9.480469 21.152344 21.167969 21.167968h194.585937v-29.238281c0-.164062.019532-.324219.023438-.484375-.007813-.292968-.023438-.582031-.023438-.875 0-.125.011719-.246094.011719-.371094l-118.1875.273438h-.023437c-5.34375 0-9.746094-4.203125-9.988282-9.542969-.964844-21.113281-18.839844-34.507812-46.644531-34.957031-5.460937-.085938-9.839844-4.539062-9.839844-10v-85.613281c0-5.460938 4.378907-9.914063 9.839844-10 27.359375-.441407 45.671875-14.167969 46.644531-34.96875.25-5.332031 4.648438-9.53125 9.988282-9.53125h252.964843c5.34375 0 9.742188 4.199219 9.992188 9.53125.972656 20.808593 19.058593 34.53125 46.078125 34.96875 5.460937.085937 9.839844 4.539062 9.839844 10v85.617187c0 5.460938-4.378907 9.910156-9.839844 10-12.367188.199219-23.066406 3.183594-31.101563 8.460938 25.226563 7.058594 43.269531 19.199218 43.269531 36.136718 0 1.515626-.152343 3.03125-.449218 4.519532v26.074218h8.039062c11.683594-.011718 21.152344-9.480468 21.167969-21.167968v-213.664063c-.015625-11.6875-9.488281-21.15625-21.171875-21.167969zm0 0"/><path d="m351.417969 184.597656c10.070312-12.566406 25.886719-20.601562 45.007812-22.875v-66.910156c-32.148437-3.71875-49.773437-22.929688-54.585937-43.859375h-235.601563c-2.617187 11.296875-8.886719 21.417969-17.832031 28.800781-9.8125 8.191406-22.578125 13.320313-37.324219 15.054688v66.914062c29.125 3.433594 49.917969 19.992188 55.207031 43.828125l119.980469-.28125c17.527344-15.167969 54.414063-23.007812 90.984375-23.007812 11.425782-.011719 22.84375.765625 34.164063 2.335937zm-127.664063 3.796875c-33.214844 0-60.140625-26.925781-60.140625-60.140625s26.925781-60.140625 60.140625-60.140625c33.21875 0 60.144532 26.925781 60.140625 60.144531-.035156 33.195313-26.941406 60.101563-60.140625 60.136719zm0 0"/><path d="m263.894531 128.257812c0 22.167969-17.96875 40.140626-40.140625 40.140626-22.167968 0-40.140625-17.972657-40.140625-40.140626 0-22.171874 17.972657-40.140624 40.140625-40.140624 22.171875 0 40.140625 17.96875 40.140625 40.140624zm0 0"/><path d="m317.253906 202.257812c-53.769531 0-81.5 16.398438-81.5 23.398438s27.730469 23.402344 81.5 23.402344c49.882813 0 77.335938-14.113282 81.050782-21.746094v-3.320312c-3.710938-7.621094-31.164063-21.734376-81.050782-21.734376zm0 0"/><path d="m248.777344 307.597656c-4.488282-1.613281-8.84375-3.574218-13.023438-5.863281v23.863281c0 2.550782 5.410156 8.59375 19.929688 13.9375 16.117187 5.933594 37.726562 9.199219 60.84375 9.199219 51.71875 0 80.925781-15.40625 81.777344-23.492187v-24.203126c-19.449219 11.085938-50.863282 16.785157-82.050782 16.785157-25.492187 0-49.457031-3.628907-67.476562-10.226563zm0 0"/><path d="m235.753906 252.589844v21.832031c0 7.941406 28.414063 23.398437 80.5 23.398437 23.316406 0 45.101563-3.292968 61.359375-9.277343 14.777344-5.433594 20.140625-11.425781 20.140625-14.121094h.550782v-21.578125c-19.515626 10.714844-50.394532 16.222656-81.050782 16.222656-30.890625 0-62.015625-5.59375-81.5-16.476562zm0 0"/></svg>