<svg id="Layer_1" data-name="Layer 1" xmlns="http://www.w3.org/2000/svg" viewBox="0 0 500 500"><defs><style>.cls-1{fill:#ff5050;}.cls-2{fill:#e6f7ff;}</style></defs><title>about_image2</title><circle class="cls-1" cx="250.5" cy="250.5" r="163.5"/><path class="cls-2" d="M305,219c35.12-32.87,53.57-35.43,64-31,13.29,5.64,16.2,23.74,31,25,12.29,1,15-11,28-10,15.7,1.24,24.56,19.9,35,16,3.07-1.15,3.78-3.31,8-4,6.44-1.06,12.15,2.77,14,4a25.67,25.67,0,0,1,7,7H292Z"/><path class="cls-2" d="M10,321c39-41.43,57.94-46.61,68-42,11.89,5.44,15.12,26.26,29,27,8.24.44,10.07-6.74,19-6,12.22,1,14.35,14.9,27,16,7.38.64,9.22-3.86,18-5,10.72-1.39,20.76,3.67,29,10Z"/></svg>