<svg id="Layer_1" data-name="Layer 1" xmlns="http://www.w3.org/2000/svg" viewBox="0 0 1000 1000"><defs><style>.cls-1{fill:#125b80;}.cls-2{fill:#115772;}.cls-3{fill:#ff7373;}.cls-4{fill:#e6f7ff;}.cls-5{fill:#006787;}.cls-6{fill:#066c84;}.cls-7{fill:#056b93;}</style></defs><title>feedback-image2</title><path class="cls-1" d="M0,1000S165,893,192,874s63-113,113-117,96-5,145,17,99,32,128,44,135,182,135,182Z"/><path class="cls-2" d="M0,836s157-27,175-34,24-35,93-34,109,27,144,34,264.38,198,264.38,198H0Z"/><circle class="cls-3" cx="691.5" cy="203.5" r="171.5"/><rect class="cls-4" x="70" y="414.37" width="346" height="47.63" rx="23.81"/><rect class="cls-4" x="150" y="384" width="182" height="42.8" rx="21.4"/><rect class="cls-4" x="614" y="351.76" width="346" height="48.24" rx="24.12"/><rect class="cls-4" x="694" y="321" width="182" height="43.35" rx="21.67"/><path class="cls-3" d="M1000,919s-81-51-125-51-50,4-82,0-33-11-60-6-228.45,138-228.45,138H1000Z"/><path class="cls-5" d="M1000,844v156H304.55S326,941,357,930,590,822,595,818s63-22,81-35,37-9,69-8a372.35,372.35,0,0,1,52.66,5.76A557.07,557.07,0,0,1,882,803C940,823,1000,844,1000,844Z"/><rect class="cls-4" x="281.83" y="195.22" width="346" height="47.63" rx="23.81"/><rect class="cls-4" x="361.83" y="164.85" width="182" height="42.8" rx="21.4"/><path class="cls-6" d="M797.66,780.76C726.86,825.14,579.55,913.59,493,938c-43.71,12.33-89.94,36.53-130.7,62H304.55S326,941,357,930,590,822,595,818s63-22,81-35,37-9,69-8A372.35,372.35,0,0,1,797.66,780.76Z"/><path class="cls-7" d="M0,914s157-51,175-52,123-29,163-31,80,1,133-9,103-1,136,21,137,84,137,84,137,34,151,37,105,36,105,36H0Z"/></svg>