<svg id="Layer_1" data-name="Layer 1" xmlns="http://www.w3.org/2000/svg" viewBox="0 0 350 600"><defs><style>.cls-1{fill:#f2f2f2;}.cls-2{fill:#e0e0e0;}.cls-3{fill:#c6c6c6;}.cls-4,.cls-8{fill:#fff;}.cls-5{opacity:0.1;}.cls-5,.cls-8{isolation:isolate;}.cls-6{fill:#3f3d56;}.cls-7{fill:#2f2e41;}.cls-8{opacity:0.4;}.cls-9{fill:#575a89;}.cls-10{fill:#ffb9b9;}</style></defs><title>r2</title><path class="cls-1" d="M343,383.09V433.4H70.42V397.56a142.46,142.46,0,0,1,26.63-53.14L287.3,313.78a143.71,143.71,0,0,1,16.37,12.48l-112.78,43,124.86-31a143.05,143.05,0,0,1,13.91,18.31l-25.48,19.05L333,362a143.33,143.33,0,0,1,7.21,14.2Q341.68,379.6,343,383.09Z"/><path class="cls-1" d="M271.73,304.93A143.3,143.3,0,0,0,99,342.07C143.94,332.21,222.25,315.15,271.73,304.93Z"/><path class="cls-2" d="M343,384.83v87.1H72.52a4.2,4.2,0,0,1-2.1-3.64V396a19.79,19.79,0,0,1,19.78-19.8H334.36A8.64,8.64,0,0,1,343,384.83Z"/><path class="cls-3" d="M316.26,468.26c0-3.46-1.76-6.27-3.93-6.27-1.36,0-2.56,1.11-3.26,2.79a1.93,1.93,0,0,0-.75-.15,2.36,2.36,0,0,0-1.76.91c-.63-2.1-2-3.55-3.53-3.55s-2.73,1.27-3.41,3.15a2.12,2.12,0,0,0-1.34-.51c-1.66,0-3,2.16-3,4.81a6.91,6.91,0,0,0,.47,2.59h19.73A9,9,0,0,0,316.26,468.26Z"/><path class="cls-3" d="M116.42,466.53c0-5-1.75-9-3.92-9-1.36,0-2.56,1.58-3.27,4a1.48,1.48,0,0,0-.75-.21,2.22,2.22,0,0,0-1.75,1.29c-.64-3-2-5.07-3.54-5.07s-2.73,1.81-3.4,4.5a1.83,1.83,0,0,0-1.35-.72c-1.66,0-3,3.08-3,6.89a13.62,13.62,0,0,0,.48,3.7h19.72A17.61,17.61,0,0,0,116.42,466.53Z"/><path class="cls-3" d="M92.84,417.88h2a3.46,3.46,0,0,1,3.45,3.45v21.85a6,6,0,0,0,6,6h0a6,6,0,0,0,6-6V390.27a3.47,3.47,0,0,1,3.45-3.45h2a3.47,3.47,0,0,1,3.45,3.45v52.91a6,6,0,0,0,6,6h0a6,6,0,0,0,6-6h0V411a3.46,3.46,0,0,1,3.45-3.45h2a3.46,3.46,0,0,1,3.45,3.45v32.2a6,6,0,0,0,6,6h0a6,6,0,0,0,6-6V433.4a3.47,3.47,0,0,1,3.45-3.45h2a3.47,3.47,0,0,1,3.45,3.45v9.78a6,6,0,0,0,6,6h0a6,6,0,0,0,6-6h0V409a3.47,3.47,0,0,1,3.45-3.45h2a3.47,3.47,0,0,1,3.45,3.45v34.22a6,6,0,0,0,6,6h0a6,6,0,0,0,6-6V399.76a3.47,3.47,0,0,1,3.45-3.45h2a3.47,3.47,0,0,1,3.45,3.45v43.42a6,6,0,0,0,6,6h0a6,6,0,0,0,6-6V421.33a3.46,3.46,0,0,1,3.45-3.45h2a3.46,3.46,0,0,1,3.45,3.45v21.85a6,6,0,0,0,6,6h0a6,6,0,0,0,6-6V411a3.46,3.46,0,0,1,3.45-3.45h2a3.46,3.46,0,0,1,3.45,3.45v32.2a6,6,0,0,0,6,6H254a6.21,6.21,0,0,0,4.37-1.88,3.46,3.46,0,0,1,2.42-1h2a3.46,3.46,0,0,1,2.42,1,6.21,6.21,0,0,0,4.37,1.88h2.7a6,6,0,0,0,6-6h0V440a3.46,3.46,0,0,1,3.46-3.45h2a3.46,3.46,0,0,1,3.45,3.45v3.16a6,6,0,0,0,6,6h0a6,6,0,0,0,6-6V409a3.47,3.47,0,0,1,3.46-3.45h2a3.47,3.47,0,0,1,3.45,3.45v34.22a6,6,0,0,0,6,6h0a6,6,0,0,0,6-6h0V421.33a3.46,3.46,0,0,1,3.46-3.45h2a3.45,3.45,0,0,1,2.59,1.18V385.72a12.13,12.13,0,0,0-12.13-12.12H99.85a10.46,10.46,0,0,0-10.46,10.45v37.28A3.46,3.46,0,0,1,92.84,417.88Z"/><rect class="cls-2" x="259.84" y="380.05" width="1.69" height="66.72"/><path class="cls-4" d="M277.12,388.55c.1,20.4-12.43,37.48-15.59,41.45-.45.57-.71.87-.71.87s-.36-.4-1-1.18c-3.3-4.14-14-18.82-15.53-36.86l0-.38c-.1-1.23-.15-2.48-.16-3.75a53,53,0,0,1,.79-9.24L245,379c3.39-18.65,15.43-32.57,15.43-32.57A70.89,70.89,0,0,1,267.2,356l.16.26a82.73,82.73,0,0,1,4.16,8l.12.28A60.42,60.42,0,0,1,277.12,388.55Z"/><rect class="cls-2" x="156.04" y="367.4" width="1.69" height="66.72"/><path class="cls-4" d="M173.32,375.9c.11,23.33-16.3,42.32-16.3,42.32s-16.59-18.83-16.7-42.17,16.31-42.32,16.31-42.32S173.22,352.57,173.32,375.9Z"/><path class="cls-5" d="M127.69,393.41a1.17,1.17,0,1,1-2-1.24c.47-.75,2.05-1.07,2.05-1.07A3.83,3.83,0,0,1,127.69,393.41Z"/><path class="cls-5" d="M238.1,402.32a1.16,1.16,0,1,1-2-1.24c.46-.74,2-1.07,2-1.07A3.84,3.84,0,0,1,238.1,402.32Z"/><path class="cls-5" d="M177.6,397.75a1.16,1.16,0,1,1-2.27.52c-.2-.85.69-2.2.69-2.2S177.4,396.9,177.6,397.75Z"/><path class="cls-5" d="M276.22,428.81a1.16,1.16,0,1,1-2.27.52,3.92,3.92,0,0,1,.69-2.21S276,428,276.22,428.81Z"/><path class="cls-5" d="M169.28,411.65a2,2,0,1,1-3.9.9c-.34-1.47,1.18-3.79,1.18-3.79S168.94,410.18,169.28,411.65Z"/><path class="cls-5" d="M211.17,419a2,2,0,1,1-3.54-1.87c.71-1.34,3.38-2.09,3.38-2.09S211.88,417.68,211.17,419Z"/><path class="cls-5" d="M253,434.22a2,2,0,1,1-4-.52c.19-1.49,2.43-3.13,2.43-3.13S253.22,432.73,253,434.22Z"/><rect class="cls-6" x="134.06" y="368.8" width="40.97" height="0.29" transform="translate(-217.88 222.98) rotate(-45.87)"/><rect class="cls-6" x="136.93" y="378.58" width="40.97" height="0.29" transform="translate(-224.02 228.02) rotate(-45.87)"/><path class="cls-6" d="M267.36,356.29l-22.45,23.17L245,379,267.2,356Z"/><rect class="cls-6" x="239.29" y="387.21" width="40.97" height="0.29" transform="translate(-199.18 304.42) rotate(-45.91)"/><path class="cls-6" d="M271.64,364.62l-27.33,28.21-.41.42-.2-.2.58-.6,27.24-28.11Z"/><path class="cls-7" d="M154.54,359.55H151V356h3.59Zm-3.32-.27h3.05v-3h-3.05Z"/><path class="cls-7" d="M261.51,407.29h-3.6v-3.6h3.6Zm-3.32-.28h3v-3h-3Z"/><circle class="cls-8" cx="113.86" cy="323.35" r="4.29"/><circle class="cls-8" cx="105.92" cy="325.4" r="3.01"/><circle class="cls-8" cx="300.96" cy="312.35" r="8.98"/><circle class="cls-8" cx="288.14" cy="323.78" r="6.3"/><path class="cls-7" d="M121.87,452.64h-.28a64,64,0,0,1,1-9.06c1.18-6.4,3.15-10.6,5.84-12.49l.16.22C122.27,435.73,121.87,452.47,121.87,452.64Z"/><path class="cls-7" d="M125.28,452.58H125c0-.3.17-7.43,3-9.4l.16.22C125.45,445.28,125.28,452.5,125.28,452.58Z"/><circle class="cls-4" cx="130.11" cy="429.97" r="1.37"/><circle class="cls-4" cx="129.43" cy="441.71" r="1.37"/><path class="cls-7" d="M124.64,432.16a6,6,0,0,1-.41,3.1,5.54,5.54,0,0,1-.93-5.93A6,6,0,0,1,124.64,432.16Z"/><path class="cls-7" d="M129.11,436.14a6.16,6.16,0,0,1-3.13.13,5.54,5.54,0,0,1,5.68-1.95A6.09,6.09,0,0,1,129.11,436.14Z"/><path class="cls-7" d="M129.16,446.54a4.28,4.28,0,0,1-2.19.09,3.89,3.89,0,0,1,4-1.37A4.23,4.23,0,0,1,129.16,446.54Z"/><polygon class="cls-2" points="122.55 537.09 5.34 537.09 5.34 536.41 122.21 536.41 122.55 537.09"/><path class="cls-7" d="M30.38,526.89s-2.06,8.6-.19,9,11,.26,13.27.63,6.92-.25,6.92-1.94-4.86-2.8-4.86-2.8-6.92-3.74-7.11-3.93S30.38,526.89,30.38,526.89Z"/><path class="cls-9" d="M32.06,476.23s.56,6.36.56,6.92-.56,9.34,0,9.72-.37,3-.37,3.92-3,16.45-2.25,22.44-1.12,5.42-.56,6,.56.56.56,1.68S36,529,36,529l6.55-41.32L39.16,475.3Z"/><path class="cls-5" d="M32.06,476.23s.56,6.36.56,6.92-.56,9.34,0,9.72-.37,3-.37,3.92-3,16.45-2.25,22.44-1.12,5.42-.56,6,.56.56.56,1.68S36,529,36,529l6.55-41.32L39.16,475.3Z"/><path class="cls-7" d="M33,529.51s-1.87,6.73,0,7.1,11-.43,13.28-.05,6.91.42,6.91-1.26-4.86-2.8-4.86-2.8-6.92-3.74-7.1-3.93S33,529.51,33,529.51Z"/><path class="cls-9" d="M30.38,468.75s-2.25,5.43.37,8.23a37.71,37.71,0,0,1,5.61,8.79c0,.37-5.24,37.57-4.49,40s.56,3.92.38,4.3,1.86,2.43,4.11,2.43,5.61-1.68,6-3.18-.56-14.39-.37-16.82a28,28,0,0,1,1.49-6.73c.37-.75,2.43-1.5,2.81-3.74s3.36-30.85,2.43-31.78S30.38,468.75,30.38,468.75Z"/><circle class="cls-10" cx="44.58" cy="419.41" r="6.36"/><path class="cls-10" d="M40.66,422.58s1.31,6.92.37,7.67,7.1,1.87,7.1,1.87.94-9.16,1.13-10.1S40.66,422.58,40.66,422.58Z"/><path class="cls-4" d="M49.26,431.56S47,425,37.85,426.88c0,0-1.68.56-1.12,1.12s1.12.57.38,1.13-1.69,0-1.13.56-5,3.92-4.67,10.28-1.31,15.33,0,16.82-.93,8-.56,9.35-2.24,3-1.12,3.55,21.31,3.93,21.87,0,.19-1.12.75-2.06a7.19,7.19,0,0,0,.37-4.67c-.37-2.06-1.31-7.1-.93-9s0-17.57-1.13-19.44A9.56,9.56,0,0,1,49.26,431.56Z"/><path class="cls-10" d="M45.33,477.17s-2.8,10.65.75,10.65,3.36-11,3.36-11Z"/><path class="cls-7" d="M47.39,419.41c0,.54-.79.88-2,1h0a10.05,10.05,0,0,1-1.55,0c-.77-.07-1.09.66-1.23,1.62-.21,1.6.09,3.83-.26,4.17-.48.49-4,0-5.1-1.09a1,1,0,0,1-.32-.59,3.14,3.14,0,0,0-.94-1.74c-.65-.71-1.57-1.5-2.61-2.74-1.87-2.25,0-2.43.56-4.12s1.49-2.24,1.49-3.36,4.3-2.06,7.85-1.87,2.81,4.67,2.81,4.67.21.55.46,1.24a19.58,19.58,0,0,1,.83,2.7A1.1,1.1,0,0,1,47.39,419.41Z"/><polygon class="cls-9" points="52.43 411.93 52.43 410.25 47.39 410.62 46.7 413.41 48.11 415.21 51.5 413.05 52.43 411.93"/><polygon class="cls-5" points="52.43 411.93 52.43 410.25 47.39 410.62 46.7 413.41 48.11 415.21 51.5 413.05 52.43 411.93"/><path class="cls-9" d="M55.42,415.48l-3.36.93-3.36,2.06-1.33.76-2,1.14h0L42.6,422,37.24,425a1,1,0,0,1-.32-.59,3.14,3.14,0,0,0-.94-1.74l10.56-6.18.85-.49,5-5.79Z"/><path class="cls-5" d="M46.64,434.36s-6.36-.37-6.92,9-.37,18.13-.37,18.32,2.62,18,5,18,4.3-.38,4.86-1.31-1.5-14.4-1.5-14.4-.93-14.2.56-18.69S50,434.92,46.64,434.36Z"/><path class="cls-4" d="M47.57,433.43s-6.35-.38-6.91,9-.38,18.13-.38,18.32,2.62,17.94,5,17.94,4.3-.37,4.86-1.31S48.7,463,48.7,463s-.94-14.21.56-18.69S50.94,434,47.57,433.43Z"/><path class="cls-4" d="M32.69,176.28a16.17,16.17,0,0,1-12.86-5.58Q15,165.11,15,156.17q0-9.61,4.92-15.33t13.39-5.72a15.81,15.81,0,0,1,12.59,5.55q4.77,5.55,4.77,14.53,0,9.75-4.89,15.41T32.69,176.28ZM33,139.34a11.9,11.9,0,0,0-9.65,4.52q-3.72,4.53-3.71,11.89t3.61,11.85a11.56,11.56,0,0,0,9.44,4.48,12.07,12.07,0,0,0,9.78-4.27c2.39-2.85,3.58-6.85,3.58-12s-1.16-9.33-3.47-12.2A11.64,11.64,0,0,0,33,139.34Z"/><path class="cls-4" d="M61.94,171.5h-.1v17.19H57.52V147.17h4.32v5h.1q3.18-5.67,9.31-5.67a9.65,9.65,0,0,1,8.13,3.82q2.93,3.83,2.92,10.24Q82.3,167.7,79,172a10.74,10.74,0,0,1-9,4.29A8.93,8.93,0,0,1,61.94,171.5ZM61.84,160v4A8.73,8.73,0,0,0,64,170a7,7,0,0,0,5.51,2.45,7.09,7.09,0,0,0,6.14-3.16q2.22-3.17,2.22-8.81A12,12,0,0,0,75.81,153a6.74,6.74,0,0,0-5.63-2.69,7.49,7.49,0,0,0-6.06,2.76A10.52,10.52,0,0,0,61.84,160Z"/><path class="cls-4" d="M93.62,171.5h-.11v17.19H89.2V147.17h4.31v5h.11q3.18-5.67,9.31-5.67a9.68,9.68,0,0,1,8.13,3.82q2.93,3.83,2.92,10.24,0,7.14-3.29,11.43a10.72,10.72,0,0,1-9,4.29A8.9,8.9,0,0,1,93.62,171.5ZM93.51,160v4a8.77,8.77,0,0,0,2.17,6,7,7,0,0,0,5.51,2.45,7.11,7.11,0,0,0,6.15-3.16q2.22-3.17,2.22-8.81a11.9,11.9,0,0,0-2.08-7.44,6.71,6.71,0,0,0-5.63-2.69,7.47,7.47,0,0,0-6,2.76A10.47,10.47,0,0,0,93.51,160Z"/><path class="cls-4" d="M132.13,176.28a12.13,12.13,0,0,1-9.53-4q-3.57-4-3.57-10.57,0-7.16,3.71-11.19a13,13,0,0,1,10-4q6,0,9.41,3.92t3.38,10.86q0,6.81-3.64,10.9A12.44,12.44,0,0,1,132.13,176.28Zm.32-25.94a8,8,0,0,0-6.58,3q-2.41,3-2.42,8.24a12,12,0,0,0,2.45,8,8.11,8.11,0,0,0,6.55,2.91,7.69,7.69,0,0,0,6.43-2.86c1.5-1.9,2.25-4.62,2.25-8.13s-.75-6.3-2.25-8.23A7.67,7.67,0,0,0,132.45,150.34Z"/><path class="cls-4" d="M166.49,151.78a5.06,5.06,0,0,0-3.26-.92,5.46,5.46,0,0,0-4.62,2.75,13.34,13.34,0,0,0-1.85,7.5v14.5h-4.32V147.17h4.32V153h.1a10.08,10.08,0,0,1,2.82-4.68,6.21,6.21,0,0,1,4.23-1.68,6.65,6.65,0,0,1,2.58.39Z"/><path class="cls-4" d="M185.22,175.33a7.83,7.83,0,0,1-4,.89q-7.08,0-7.08-8.33V151.06h-4.63v-3.89h4.63v-6.94l4.32-1.48v8.42h6.78v3.89h-6.78v16a6.92,6.92,0,0,0,.92,4.09,3.58,3.58,0,0,0,3,1.22,4.34,4.34,0,0,0,2.81-.95Z"/><path class="cls-4" d="M212.77,175.61h-4.31v-4.5h-.11a8.8,8.8,0,0,1-8.31,5.17q-9.63,0-9.63-12.11v-17h4.29v16.28q0,9,6.52,9a6.45,6.45,0,0,0,5.2-2.45,9.74,9.74,0,0,0,2-6.43V147.17h4.31Z"/><path class="cls-4" d="M243.84,175.61h-4.31V159.39q0-9.06-6.27-9a6.63,6.63,0,0,0-5.35,2.57,9.85,9.85,0,0,0-2.12,6.48v16.22h-4.31V147.17h4.31v4.72h.11q3-5.38,8.84-5.39a8.06,8.06,0,0,1,6.76,3q2.34,3,2.34,8.7Z"/><path class="cls-4" d="M254.18,140a2.64,2.64,0,0,1-2-.84,2.85,2.85,0,0,1-.82-2.11,2.9,2.9,0,0,1,.82-2.12,2.61,2.61,0,0,1,2-.85,2.68,2.68,0,0,1,2,.85,3.08,3.08,0,0,1,0,4.21A2.69,2.69,0,0,1,254.18,140Zm2.11,35.66H252V147.17h4.32Z"/><path class="cls-4" d="M277.52,175.33a7.89,7.89,0,0,1-4,.89q-7.08,0-7.07-8.33V151.06h-4.64v-3.89h4.64v-6.94l4.31-1.48v8.42h6.79v3.89h-6.79v16a7,7,0,0,0,.92,4.09,3.58,3.58,0,0,0,3.05,1.22,4.39,4.39,0,0,0,2.82-.95Z"/><path class="cls-4" d="M285.49,140a2.64,2.64,0,0,1-2-.84,2.85,2.85,0,0,1-.82-2.11,2.9,2.9,0,0,1,.82-2.12,2.61,2.61,0,0,1,2-.85,2.68,2.68,0,0,1,2,.85,3.08,3.08,0,0,1,0,4.21A2.69,2.69,0,0,1,285.49,140Zm2.1,35.66h-4.31V147.17h4.31Z"/><path class="cls-4" d="M318,162.53H299q.1,4.75,2.42,7.33a8.11,8.11,0,0,0,6.37,2.58,12.8,12.8,0,0,0,8.36-3.16v4.28c-2.36,1.81-5.5,2.72-9.39,2.72a11.07,11.07,0,0,1-9-3.88q-3.27-3.87-3.26-10.9,0-6.63,3.56-10.82a11.2,11.2,0,0,1,8.85-4.18,9.92,9.92,0,0,1,8.19,3.61q2.9,3.62,2.89,10Zm-4.42-3.86a9.65,9.65,0,0,0-1.8-6.14,6,6,0,0,0-4.93-2.19,6.79,6.79,0,0,0-5.19,2.3,10.73,10.73,0,0,0-2.63,6Z"/><path class="cls-4" d="M322.87,174.58V169.7a12.35,12.35,0,0,0,7.76,2.74q5.69,0,5.69-4a3.55,3.55,0,0,0-.49-1.93,5,5,0,0,0-1.31-1.41,10.56,10.56,0,0,0-1.95-1.09c-.75-.33-1.55-.67-2.41-1a30,30,0,0,1-3.14-1.51,9.8,9.8,0,0,1-2.27-1.72,6.45,6.45,0,0,1-1.36-2.18,8.08,8.08,0,0,1-.46-2.87,7.19,7.19,0,0,1,.86-3.54,8.07,8.07,0,0,1,2.32-2.58,10.49,10.49,0,0,1,3.3-1.57,14,14,0,0,1,3.83-.53,14.77,14.77,0,0,1,6.26,1.28v4.61a11.72,11.72,0,0,0-6.84-2,7.38,7.38,0,0,0-2.18.29,5.11,5.11,0,0,0-1.67.82,3.6,3.6,0,0,0-1.08,1.26,3.41,3.41,0,0,0-.38,1.63,4,4,0,0,0,.38,1.86,3.89,3.89,0,0,0,1.12,1.33,8.12,8.12,0,0,0,1.78,1.05c.71.32,1.5.66,2.4,1a32.51,32.51,0,0,1,3.21,1.49,11,11,0,0,1,2.42,1.72A6.73,6.73,0,0,1,340.2,165a8.24,8.24,0,0,1-.34,6.64,7.88,7.88,0,0,1-2.36,2.58,10.5,10.5,0,0,1-3.39,1.53,16.06,16.06,0,0,1-4,.5A14.64,14.64,0,0,1,322.87,174.58Z"/><path class="cls-4" d="M55.15,243.87H50.84V227.54q0-4.72-1.38-6.83t-4.65-2.11a5.65,5.65,0,0,0-4.69,2.66,10.6,10.6,0,0,0-1.94,6.39v16.22H33.87V227q0-8.39-6.13-8.38a5.56,5.56,0,0,0-4.68,2.51,10.8,10.8,0,0,0-1.85,6.54v16.22H16.9V215.43h4.31v4.5h.11q2.87-5.16,8.37-5.17a7.49,7.49,0,0,1,4.81,1.63,8.17,8.17,0,0,1,2.82,4.26q3-5.88,8.94-5.89,8.9,0,8.89,11.59Z"/><path class="cls-4" d="M82.59,243.87H78.28v-4.44h-.11a9,9,0,0,1-8.28,5.11,8.55,8.55,0,0,1-6.3-2.25,8,8,0,0,1-2.28-6q0-8,8.89-9.28l8.08-1.19q0-7.26-5.55-7.25a12.82,12.82,0,0,0-8.79,3.5v-4.67a16,16,0,0,1,9.16-2.67q9.5,0,9.49,10.61Zm-4.31-14.39-6.5,1A10,10,0,0,0,67.26,232c-1,.75-1.53,2.08-1.53,4a4.46,4.46,0,0,0,1.41,3.41,5.25,5.25,0,0,0,3.75,1.32,6.78,6.78,0,0,0,5.3-2.38,8.78,8.78,0,0,0,2.09-6Z"/><path class="cls-4" d="M113.72,243.87H109.4V239h-.1a10.54,10.54,0,0,1-17.38,1.68q-3-3.83-3-10.4c0-4.71,1.12-8.47,3.37-11.31a10.86,10.86,0,0,1,9-4.25,8.56,8.56,0,0,1,8.08,4.61h.1V201.76h4.32ZM109.4,231v-4.19a8.44,8.44,0,0,0-2.15-5.84,7.07,7.07,0,0,0-5.48-2.38,7.3,7.3,0,0,0-6.21,3.05c-1.5,2-2.26,4.85-2.26,8.45a12.5,12.5,0,0,0,2.17,7.76,7,7,0,0,0,5.83,2.85,7.21,7.21,0,0,0,5.85-2.75A10.63,10.63,0,0,0,109.4,231Z"/><path class="cls-4" d="M144.1,230.79h-19q.11,4.76,2.42,7.33a8.14,8.14,0,0,0,6.37,2.59,12.85,12.85,0,0,0,8.37-3.17v4.28q-3.56,2.72-9.4,2.72a11.1,11.1,0,0,1-9-3.88q-3.25-3.87-3.26-10.9a16.14,16.14,0,0,1,3.56-10.82,11.21,11.21,0,0,1,8.86-4.18,9.91,9.91,0,0,1,8.18,3.61q2.89,3.62,2.89,10Zm-4.42-3.86a9.54,9.54,0,0,0-1.8-6.14A6,6,0,0,0,133,218.6a6.76,6.76,0,0,0-5.18,2.3,10.73,10.73,0,0,0-2.63,6Z"/><path class="cls-4" d="M179.44,220a5.11,5.11,0,0,0-3.27-.92,5.44,5.44,0,0,0-4.61,2.75,13.25,13.25,0,0,0-1.86,7.5v14.5h-4.31V215.43h4.31v5.86h.11a10,10,0,0,1,2.81-4.68,6.25,6.25,0,0,1,4.24-1.68,6.72,6.72,0,0,1,2.58.39Z"/><path class="cls-4" d="M205.06,230.79H186q.11,4.76,2.42,7.33a8.13,8.13,0,0,0,6.37,2.59,12.81,12.81,0,0,0,8.36-3.17v4.28q-3.54,2.72-9.39,2.72a11.08,11.08,0,0,1-9-3.88q-3.26-3.87-3.26-10.9a16.14,16.14,0,0,1,3.56-10.82,11.21,11.21,0,0,1,8.86-4.18,9.91,9.91,0,0,1,8.18,3.61q2.9,3.62,2.89,10Zm-4.42-3.86a9.65,9.65,0,0,0-1.8-6.14,6,6,0,0,0-4.93-2.19,6.79,6.79,0,0,0-5.19,2.3,10.79,10.79,0,0,0-2.63,6Z"/><path class="cls-4" d="M230.87,243.87h-4.31v-4.44h-.11a9,9,0,0,1-8.29,5.11,8.58,8.58,0,0,1-6.3-2.25,8,8,0,0,1-2.27-6q0-8,8.89-9.28l8.08-1.19q0-7.26-5.55-7.25a12.82,12.82,0,0,0-8.79,3.5v-4.67a16,16,0,0,1,9.15-2.67q9.51,0,9.5,10.61Zm-4.31-14.39-6.5,1a10.14,10.14,0,0,0-4.53,1.57c-1,.75-1.52,2.08-1.52,4a4.46,4.46,0,0,0,1.41,3.41,5.22,5.22,0,0,0,3.74,1.32,6.76,6.76,0,0,0,5.3-2.38,8.74,8.74,0,0,0,2.1-6Z"/><path class="cls-4" d="M243.32,243.87H239V201.76h4.32Z"/></svg>