<svg id="Layer_1" data-name="Layer 1" xmlns="http://www.w3.org/2000/svg" viewBox="0 0 350 600"><defs><style>.cls-1{fill:#fff;}.cls-2{fill:#f2f2f2;}.cls-3{fill:#fbbebe;}.cls-4{fill:#2f2e41;}.cls-5{fill:#575a89;}.cls-6{opacity:0.1;isolation:isolate;}</style></defs><title>r3</title><path class="cls-1" d="M17.16,121.71v-50H31.21q6.4,0,10.16,3.17a10.29,10.29,0,0,1,3.76,8.26A12,12,0,0,1,36.58,95v.14a12.51,12.51,0,0,1,8,3.82,11.84,11.84,0,0,1,3,8.38A13.13,13.13,0,0,1,43,117.73a16.81,16.81,0,0,1-11.47,4ZM22.94,77V93.16h5.93a11.16,11.16,0,0,0,7.47-2.31,8.12,8.12,0,0,0,2.72-6.54q0-7.29-9.47-7.28Zm0,21.4v18H30.8q5.1,0,7.9-2.44a8.42,8.42,0,0,0,2.81-6.69q0-8.85-11.92-8.85Z"/><path class="cls-1" d="M85.36,121.71H79.71v-5.65h-.13a11.6,11.6,0,0,1-10.89,6.48q-12.6,0-12.61-15.19V86H61.7v20.42q0,11.3,8.54,11.29a8.57,8.57,0,0,0,6.8-3.08,11.9,11.9,0,0,0,2.67-8.07V86h5.65Z"/><path class="cls-1" d="M99.66,77a3.72,3.72,0,0,1,0-7.43,3.61,3.61,0,0,1,2.63,1.07,3.74,3.74,0,0,1,0,5.28A3.58,3.58,0,0,1,99.66,77Zm2.76,44.75H96.77V86h5.65Z"/><path class="cls-1" d="M119.5,121.71h-5.65V68.87h5.65Z"/><path class="cls-1" d="M161.05,121.71H155.4v-6.07h-.14q-3.93,6.9-12.13,6.9a13.08,13.08,0,0,1-10.62-4.79q-4-4.78-4-13,0-8.85,4.41-14.19a14.47,14.47,0,0,1,11.74-5.33q7.27,0,10.58,5.79h.14V68.87h5.65Zm-5.65-16.14v-5.26A10.26,10.26,0,0,0,152.57,93a9.41,9.41,0,0,0-7.16-3,9.69,9.69,0,0,0-8.13,3.84q-3,3.83-3,10.59,0,6.17,2.85,9.74a9.23,9.23,0,0,0,7.63,3.57,9.6,9.6,0,0,0,7.66-3.45A12.91,12.91,0,0,0,155.4,105.57Z"/><path class="cls-1" d="M219.88,86l-16.22,41.4q-4.35,11.08-12.2,11.09a12.75,12.75,0,0,1-3.68-.46v-5.12a10.33,10.33,0,0,0,3.34.63c2.85,0,5-1.72,6.41-5.16l2.82-6.76L186.57,86h6.27l9.54,27.46c.12.35.36,1.26.73,2.72h.2c.12-.56.35-1.44.69-2.65L214,86Z"/><path class="cls-1" d="M240.35,122.54q-7.83,0-12.49-5t-4.67-13.26q0-9,4.86-14t13.12-5.06q7.89,0,12.32,4.92t4.43,13.62q0,8.55-4.78,13.68T240.35,122.54ZM240.76,90a10.68,10.68,0,0,0-8.61,3.75Q229,97.49,229,104.07q0,6.34,3.2,10a10.84,10.84,0,0,0,8.58,3.66q5.48,0,8.42-3.59t2.95-10.21q0-6.69-2.95-10.31T240.76,90Z"/><path class="cls-1" d="M295.46,121.71h-5.65v-5.65h-.13a11.6,11.6,0,0,1-10.89,6.48q-12.62,0-12.61-15.19V86h5.62v20.42q0,11.3,8.54,11.29a8.57,8.57,0,0,0,6.8-3.08,11.9,11.9,0,0,0,2.67-8.07V86h5.65Z"/><path class="cls-1" d="M325.26,91.8A6.89,6.89,0,0,0,321,90.65a7.2,7.2,0,0,0-6.05,3.45q-2.42,3.45-2.42,9.41v18.2h-5.65V86h5.65v7.35h.13a12.57,12.57,0,0,1,3.69-5.87,8.32,8.32,0,0,1,5.55-2.11,9,9,0,0,1,3.37.49Z"/><path class="cls-1" d="M17.16,207.36v-50H30.8q26.12,0,26.11,24.36,0,11.58-7.25,18.6t-19.41,7Zm5.78-44.68v39.38h7.38q9.7,0,15.12-5.26t5.41-14.92q0-19.2-20.19-19.2Z"/><path class="cls-1" d="M102,207.36H95.15l-8.27-14A30,30,0,0,0,84.67,190a12.69,12.69,0,0,0-2.18-2.25,7.66,7.66,0,0,0-2.41-1.27,9.8,9.8,0,0,0-2.91-.4H72.41v21.26H66.62v-50H81.37a20.91,20.91,0,0,1,6,.82,13.51,13.51,0,0,1,4.76,2.49,11.7,11.7,0,0,1,3.15,4.17,13.89,13.89,0,0,1,1.14,5.84,14.11,14.11,0,0,1-.78,4.79,12.37,12.37,0,0,1-2.2,3.88A13.37,13.37,0,0,1,90,182.28a17,17,0,0,1-4.53,1.87v.14a10.17,10.17,0,0,1,2.16,1.27,13.11,13.11,0,0,1,1.74,1.69A23.06,23.06,0,0,1,91,189.46c.54.83,1.14,1.79,1.81,2.88ZM72.41,162.68V180.8h7.86a11.84,11.84,0,0,0,4-.66,9.08,9.08,0,0,0,3.18-1.9,8.56,8.56,0,0,0,2.11-3,10.37,10.37,0,0,0,.75-4,7.87,7.87,0,0,0-2.56-6.25q-2.57-2.25-7.43-2.25Z"/><path class="cls-1" d="M135,207.36H108.82v-50H133.9v5.3H114.61V179.3h17.84v5.27H114.61v17.49H135Z"/><path class="cls-1" d="M183.09,207.36h-6.4l-5.24-14H150.51l-4.93,14h-6.44l18.94-50h6Zm-13.53-19.27-7.76-21.3a20.84,20.84,0,0,1-.75-3.34h-.14a19.71,19.71,0,0,1-.79,3.34l-7.69,21.3Z"/><path class="cls-1" d="M240.73,207.36H235V173.83q0-4,.49-9.72h-.14a31.81,31.81,0,0,1-1.48,4.84L217,207.36h-2.83l-16.84-38.13a29.52,29.52,0,0,1-1.49-5.12h-.13q.27,3,.27,9.79v33.46h-5.58v-50H198l15.16,34.85a44.48,44.48,0,0,1,2.27,6h.21c1-2.74,1.78-4.79,2.37-6.14l15.47-34.71h7.24Z"/><path class="cls-1" d="M22.05,291.51q0,8.79-3.5,13.54t-10,4.76a10.55,10.55,0,0,1-4.68-1.11v-5.34a9.24,9.24,0,0,0,4.82,1.57q7.73,0,7.72-12.47V257.32h5.65Zm-2.76-43.25a3.6,3.6,0,0,1-3.65-3.69,3.63,3.63,0,0,1,1.07-2.67,3.51,3.51,0,0,1,2.58-1.06A3.66,3.66,0,0,1,23,244.57a3.56,3.56,0,0,1-1.08,2.61A3.61,3.61,0,0,1,19.29,248.26Z"/><path class="cls-1" d="M48.23,293.85q-7.83,0-12.49-5t-4.67-13.26q0-9,4.86-14t13.13-5.05q7.88,0,12.31,4.91T65.8,275q0,8.54-4.77,13.68T48.23,293.85Zm.41-32.55A10.7,10.7,0,0,0,40,265q-3.16,3.75-3.17,10.34,0,6.35,3.2,10A10.84,10.84,0,0,0,48.64,289q5.47,0,8.42-3.59T60,275.24q0-6.69-2.95-10.32T48.64,261.3Z"/><path class="cls-1" d="M80.61,287.85h-.14V293H74.82V240.18h5.65V263.6h.14a13.33,13.33,0,0,1,12.19-7.11,12.88,12.88,0,0,1,10.63,4.79c2.56,3.19,3.84,7.48,3.84,12.84q0,9-4.3,14.34a14.27,14.27,0,0,1-11.78,5.39A11.57,11.57,0,0,1,80.61,287.85Zm-.14-14.39v5A10.71,10.71,0,0,0,83.31,286a10.07,10.07,0,0,0,15.26-.89q2.93-4,2.92-11.05,0-6-2.73-9.34a8.94,8.94,0,0,0-7.37-3.38,9.94,9.94,0,0,0-7.92,3.47A12.81,12.81,0,0,0,80.47,273.46Z"/><path class="cls-1" d="M164.9,293h-5.64V272.45q0-11.15-8.2-11.15a8.88,8.88,0,0,0-7,3.22,12.08,12.08,0,0,0-2.83,8.28V293h-5.65V240.18h5.65v23.07h.14q4.07-6.76,11.58-6.76,11.91,0,11.91,14.53Z"/><path class="cls-1" d="M203.9,276.6H179q.15,6,3.17,9.2A10.86,10.86,0,0,0,190.5,289a17.19,17.19,0,0,0,10.95-4v5.36q-4.65,3.42-12.29,3.42-7.49,0-11.75-4.86t-4.27-13.68q0-8.34,4.66-13.58a14.93,14.93,0,0,1,11.6-5.24q6.91,0,10.71,4.53t3.79,12.58Zm-5.79-4.85c0-3.3-.81-5.86-2.36-7.7a8,8,0,0,0-6.46-2.75,9.06,9.06,0,0,0-6.78,2.89,13.23,13.23,0,0,0-3.45,7.56Z"/><path class="cls-1" d="M230.84,263.11a6.83,6.83,0,0,0-4.27-1.15,7.2,7.2,0,0,0-6,3.45q-2.43,3.45-2.43,9.41V293h-5.65V257.32h5.65v7.36h.14a12.37,12.37,0,0,1,3.69-5.87,8.31,8.31,0,0,1,5.54-2.11,9.28,9.28,0,0,1,3.38.48Z"/><path class="cls-1" d="M264.39,276.6h-24.9q.13,6,3.16,9.2A10.88,10.88,0,0,0,251,289a17.22,17.22,0,0,0,11-4v5.36q-4.65,3.42-12.3,3.42-7.49,0-11.75-4.86t-4.27-13.68q0-8.34,4.67-13.58a14.9,14.9,0,0,1,11.59-5.24c4.61,0,8.19,1.51,10.71,4.53s3.79,7.21,3.79,12.58Zm-5.79-4.85c0-3.3-.81-5.86-2.36-7.7a8,8,0,0,0-6.45-2.75,9.06,9.06,0,0,0-6.79,2.89,13.23,13.23,0,0,0-3.45,7.56Z"/><path class="cls-2" d="M191.89,580.11l-93.17.31c-24.72-7.43-45-33.23-45.1-71.9a110.09,110.09,0,0,1,1.32-17.4l75-16.86,57.9-13a114.86,114.86,0,0,1,11.89,12.37l-55.36,29.23-26.12,13.79,29.35-10.13,60.91-21a147.19,147.19,0,0,1,10.12,18.16l-18.37,19L221.09,509l.26.63C234.53,541,218.18,580,191.89,580.11Z"/><path class="cls-2" d="M176.58,452.5c-14.09,4-31.41,9.16-49.22,14.47-25.75,7.69-52.52,15.8-72,21.73v-.07a26.91,26.91,0,0,1,4.94-11.48c14.44-18.77,32.82-31.88,53.28-36.75h0a76.87,76.87,0,0,1,17.56-2.09C147.42,438.25,162.84,443.36,176.58,452.5Z"/><ellipse class="cls-2" cx="116.2" cy="578.94" rx="63.41" ry="9.15"/><polygon class="cls-3" points="93.64 493.58 93.64 507.8 103.8 509.02 109.9 501.3 105.02 491.54 93.64 493.58"/><polygon class="cls-3" points="132.25 552.11 137.54 566.34 147.29 563.08 139.98 551.29 132.25 552.11"/><path class="cls-4" d="M120.06,431s-52.84-5.28-51.21,9.35,24.79,56.5,24.79,56.5L109.09,494s-11-17.07-10.17-22.76-2.43-13.41-2.43-13.41l7.72,1.22,4.47,6.91,9.35,48L132.25,557l10.57-2.85s-5.69-17.88-4.06-23.58S131,502.92,131,502.92l6.5-38.2s12.6-3.66,8.94-16.26S120.06,431,120.06,431Z"/><path class="cls-4" d="M98.11,503.33s-6.1-4.88-5.69-2.84a14.57,14.57,0,0,1,0,4.47l-5.69,12.6s-13.82,12.6-1.22,13,19.1-12.6,19.1-12.6,17.48-13,15.45-15-12.7-6.7-12.7-6.7S103.8,506.18,98.11,503.33Z"/><path class="cls-4" d="M137.13,559.83s-5.69-5.28-6.09-2.84-.82,5.69-.82,5.69l-8.53,8.13s-12.2,11.78-1.63,12.19a20.42,20.42,0,0,0,16.26-6.91s15.45-3.25,14.63-5.69-4.89-11.87-6.71-12.24S142,563.08,137.13,559.83Z"/><circle class="cls-3" cx="117.62" cy="359.85" r="12.6"/><path class="cls-3" d="M111.93,368.38s5.29,14.23,4.88,15.45,16.66-10.16,16.66-10.16-7.31-1.63-7.31-8.13Z"/><path class="cls-3" d="M158.27,389.11s7.32,7.32,8.53,9.76,28.86,33.33,28.86,33.33,18.3,21.54,11,21.95S190,437.08,190,437.08,164,418,162.74,413.5l-15-15.45Z"/><path class="cls-5" d="M120.06,380.58h-4.47l-6.1,9.75s-6.09,5.29-1.62,16.26a243,243,0,0,1,8.13,24.8s13,1.62,15.44,5.69,16.26,17.07,16.26,17.07,2.44-8.54,1.63-21.14,0-31.7,0-31.7l-.82-25.2s-15.7-3.64-16.79-3S120.06,380.58,120.06,380.58Z"/><path class="cls-5" d="M142.42,377.32l6.09-1.21s6.51,4.06,12.6,15.85c0,0-13,8.53-14.22,8.13S142.42,377.32,142.42,377.32Z"/><path class="cls-3" d="M105,405s-9.35,15-6.5,20.74S105,431,105,431s6.91-1.22,6.91-6.91,2.85-6.1,2.85-6.1,17.88-14.63,11-14.63-16.26,10.16-16.26,10.16l-.4-9.35Z"/><path class="cls-5" d="M111.12,389.93a10.68,10.68,0,0,0-7.32,8.12c-1.22,6.51-.81,9.76-.81,9.76l8.13-.81Z"/><path class="cls-6" d="M99.74,422.44s6.5-8.53,7.31-7.31Z"/><path class="cls-4" d="M124,344.59s-6.68-6.67-13.11-2.19-9.43,8.75-8.71,11.65a41.78,41.78,0,0,0,2.72,6.91s-1.34-6,4.07-6.6,12.8-4.37,12.8-4.37l5.35,10.68s.65-2.53,2.66-1.86S129.89,345.24,124,344.59Z"/><path class="cls-1" d="M78.3,568.12c0,5.93-3.53,8-7.87,8h-.3l-.6,0c-3.92-.28-7-2.46-7-8,0-5.7,7.29-12.9,7.83-13.43h0l0,0S78.3,562.19,78.3,568.12Z"/><path class="cls-2" d="M70.14,575.21l2.88-4-2.89,4.46v.46l-.6,0,.31-5.93v0h0l0-.56L67,565.07l2.9,4v.12l.23-4.48-2.48-4.62L70.15,564l.24-9.28v0L70.35,562l2.47-2.9-2.48,3.53-.06,4,2.3-3.85-2.31,4.44,0,2.23,3.35-5.36-3.36,6.14Z"/><ellipse class="cls-2" cx="222.47" cy="367.88" rx="3.78" ry="7.85"/><ellipse class="cls-2" cx="227.12" cy="370.79" rx="3.78" ry="7.85"/><path class="cls-2" d="M219.37,446.5c0-.16.81-3.87,4.91-9.29,3.76-5,11.17-12.36,25.06-19.37,26.31-13.27,32.2-38.21,32.26-38.46l.7.16a54.94,54.94,0,0,1-6.23,14.39,64.52,64.52,0,0,1-26.41,24.56c-26.27,13.25-29.56,28-29.59,28.15Z"/><circle class="cls-2" cx="282.95" cy="372.02" r="4.68"/><circle class="cls-2" cx="282.02" cy="394.75" r="4.68"/><circle class="cls-2" cx="266.78" cy="396.35" r="4.68"/><circle class="cls-2" cx="269.15" cy="411.81" r="4.68"/><circle class="cls-2" cx="247.23" cy="412.13" r="4.68"/><path class="cls-2" d="M221.32,448.55s4.41-11.64,20.59-8.43Z"/><path class="cls-2" d="M217.24,444.48S224,434,211.84,422.9Z"/><polygon class="cls-2" points="328.14 450.02 320.39 446.96 312.64 443.9 319.16 438.72 325.69 433.53 326.92 441.78 328.14 450.02"/><polygon class="cls-2" points="15.97 397.18 8.22 394.12 0.47 391.06 6.99 385.88 13.52 380.69 14.75 388.94 15.97 397.18"/><polygon class="cls-2" points="289.53 495.14 281.78 492.08 274.02 489.02 280.55 483.83 287.08 478.65 288.3 486.89 289.53 495.14"/><polygon class="cls-2" points="331.38 523.9 324.05 527.88 316.73 531.87 316.94 523.53 317.15 515.2 324.26 519.55 331.38 523.9"/><polygon class="cls-2" points="55.38 364.56 48.06 368.55 40.73 372.53 40.95 364.19 41.16 355.86 48.27 360.21 55.38 364.56"/></svg>