<svg id="Layer_1" data-name="Layer 1" xmlns="http://www.w3.org/2000/svg" viewBox="0 0 800 768"><defs><style>.cls-1{fill:#fff;}.cls-2{fill:#ff7373;}.cls-3{fill:#abe7ff;}.cls-4{fill:#125b80;}.cls-5{fill:#4ccbfc;opacity:0.5;}</style></defs><title>register-image1</title><path class="cls-1" d="M674,343.5A274.38,274.38,0,0,1,585.9,545H213.1A274.38,274.38,0,0,1,125,343.5C125,191.9,247.9,69,399.5,69S674,191.9,674,343.5Z"/><circle class="cls-2" cx="422" cy="383" r="97"/><rect class="cls-3" x="226.79" y="322" width="120.28" height="22.7" rx="10.19"/><rect class="cls-3" x="196" y="337.72" width="105.25" height="19.79" rx="8.88"/><rect class="cls-3" x="263.3" y="341.21" width="116.7" height="19.79" rx="8.88"/><rect class="cls-3" x="490.26" y="387" width="98.71" height="19.79" rx="9.9"/><rect class="cls-3" x="465" y="400.7" width="86.37" height="17.25" rx="8.63"/><rect class="cls-3" x="520.23" y="403.75" width="95.77" height="17.25" rx="8.63"/><path class="cls-1" d="M637.29,565a7.86,7.86,0,0,1-3.81,6.36,16.27,16.27,0,0,1-9.19,2.64H239.11c-7.18,0-13-4-13-9a7.86,7.86,0,0,1,3.81-6.36c.27-.19.56-.37.85-.54a16.76,16.76,0,0,1,8.34-2.1H624.29C631.47,556,637.29,560,637.29,565Z"/><path class="cls-1" d="M581.26,613.24a9.48,9.48,0,0,1-3.81,7.36,14.7,14.7,0,0,1-9.19,3.06H274.77c-7.18,0-13-4.67-13-10.42a9.47,9.47,0,0,1,3.81-7.37,14.75,14.75,0,0,1,9.19-3H568.26C575.44,602.82,581.26,607.48,581.26,613.24Z"/><path class="cls-1" d="M574,587a7.86,7.86,0,0,1-3.81,6.36A16.27,16.27,0,0,1,561,596H175.77c-7.18,0-13-4-13-9a7.86,7.86,0,0,1,3.81-6.36c.27-.19.56-.37.85-.54a16.76,16.76,0,0,1,8.34-2.1H561C568.13,578,574,582,574,587Z"/><path class="cls-4" d="M565.14,544.73l-406,.26q92.11-47.16,184.53-93.74h0l37-18.72c3.68-1.86,7.6-3.77,11.71-3.43,3.88.31,7.28,2.58,10.49,4.77L423.59,448Z"/><path class="cls-5" d="M453,468c-12.48-8.13-23.86-13.67-28-10-4.78,4.25,1.74,19.38,0,20-2.05.73-9.47-20.82-15-20-5.34.79-5.62,21.94-9,22s-3.58-19.66-10-21c-7.4-1.54-17.23,22.45-21,21-3.51-1.35,3.62-22.71-1-25-5.54-2.75-23.49,24.16-27,22-2.52-1.55,6.32-15.67,2-20-5.56-5.58-29,9-29,9s5.6-2.91,28.62-14.75h0l37-18.72a18.68,18.68,0,0,1,11.71-3.43c3.45.28,5.74,1.66,10.49,4.77,9.3,6.09,15.06,10.32,20.72,14.16s5.47,3.37,12.41,8C443.41,460.92,449.24,465.18,453,468Z"/><rect class="cls-1" x="171" y="623" width="51" height="16" rx="8"/><rect class="cls-1" x="87" y="584" width="51" height="16" rx="8"/><rect class="cls-1" x="649" y="585" width="51" height="16" rx="8"/><rect class="cls-1" x="616" y="631" width="51" height="16" rx="8"/><rect class="cls-1" x="422" y="639" width="51" height="16" rx="8"/><rect class="cls-3" x="458.65" y="274" width="120.28" height="22.43" rx="10.19"/><rect class="cls-3" x="427.86" y="289.53" width="105.25" height="19.55" rx="8.88"/><rect class="cls-3" x="495.16" y="292.98" width="116.7" height="19.55" rx="8.88"/><path class="cls-1" d="M724,535a18,18,0,0,1-3.81,11.31A11.89,11.89,0,0,1,711,551H88c-7.18,0-13-7.16-13-16a18,18,0,0,1,3.81-11.31A11.89,11.89,0,0,1,88,519H711C718.18,519,724,526.16,724,535Z"/></svg>