<svg xmlns="http://www.w3.org/2000/svg" xmlns:xlink="http://www.w3.org/1999/xlink" viewBox="0 0 541.75 500"><defs><style>.cls-1{fill:#f4f5f7;}.cls-2{clip-path:url(#clip-path);}.cls-3{fill:#fff;}.cls-4,.cls-6{fill:#1b98e0;}.cls-5,.cls-6{opacity:0.5;}.cls-7{fill:#cd998b;}.cls-8{fill:#447faa;}.cls-9{fill:#edebeb;}.cls-10{fill:#372b2d;}.cls-11{fill:#a57051;}.cls-12{fill:#4985b9;}.cls-13{fill:#2e2425;}</style><clipPath id="clip-path"><circle class="cls-1" cx="250" cy="250" r="250"/></clipPath></defs><title>registermodal1-01</title><g id="Layer_1" data-name="Layer 1"><circle class="cls-1" cx="250" cy="250" r="250"/><g class="cls-2"><rect class="cls-3" x="70.75" y="86" width="466" height="271" rx="5.45"/><path class="cls-4" d="M531.3,91a.45.45,0,0,1,.45.45v260.1a.45.45,0,0,1-.45.45H76.2a.45.45,0,0,1-.45-.45V91.45A.45.45,0,0,1,76.2,91H531.3m0-10H76.2A10.45,10.45,0,0,0,65.75,91.45v260.1A10.45,10.45,0,0,0,76.2,362H531.3a10.45,10.45,0,0,0,10.45-10.45V91.45A10.45,10.45,0,0,0,531.3,81Z"/><rect class="cls-4" x="262.25" y="358" width="83" height="64"/><rect class="cls-4" x="249" y="422" width="110" height="12"/><g class="cls-5"><rect class="cls-4" x="90" y="106" width="159" height="229" rx="7.08"/></g><rect class="cls-6" x="294" y="106" width="217" height="8"/><rect class="cls-6" x="294" y="124" width="217" height="8"/><rect class="cls-6" x="294" y="145" width="217" height="8"/><rect class="cls-6" x="294" y="176" width="130" height="159"/><circle class="cls-6" cx="475.5" cy="211.5" r="35.5"/></g></g><g id="Layer_2" data-name="Layer 2"><path class="cls-7" d="M108.59,302.46s9.15,0,12-.72,4.57-.72,4.82-1.69a8.32,8.32,0,0,1,2.4-3.13c.48-.24,1.21-.48,1.21.24a1.06,1.06,0,0,0,1.44,1c.72-.24,4.09-2.41,5.06-2.89s2.4-1,2.64-.72a1.69,1.69,0,0,1,0,1.92,22.06,22.06,0,0,1-6,5.3c-1.69.72-7,3.61-9.39,4.57s-11.32,4.58-13.48,4.82-4.82,1-5.06-.73S108.59,302.46,108.59,302.46Z"/><path class="cls-8" d="M102.33,289.46a45.67,45.67,0,0,1,4.82,8.91c1.44,4.09,2.17,4.33,2.17,4.33s0,3.13-.49,4.09-2.64,4.1-3.37,4.34a3.57,3.57,0,0,1-1.68,0l-1.93-1.69Z"/><path class="cls-9" d="M72.72,418s-.48,2.89-.48,3.61a2.19,2.19,0,0,0,.72,1.92c.73.73,0,1.69,1.69,2.65a10.47,10.47,0,0,0,6.26,1.45c2.41-.24,3.13,0,3.61-.48a4,4,0,0,1,1-.73l-.72-2.64Z"/><path class="cls-9" d="M91.74,413.44s-.48,2.89,0,3.61,5.78,1.45,7,1.69,4.58,2.17,7.47,2.17,5.29,0,6-.49a2.85,2.85,0,0,0,1.21-1.92c0-.48-1.93-1.93-1.93-1.93Z"/><path class="cls-10" d="M80.67,411.52s2.89,9.15,3.37,10.11,1.92,2.41,1.2,3.13a5,5,0,0,1-4.33,1.2,22.6,22.6,0,0,1-5.3-1.68A6.22,6.22,0,0,1,73,420.67c-.48-1.21-.72-1-.72-1.93v-4.82Z"/><path class="cls-10" d="M101.85,407.91s4.58,4.57,6.5,6,4.34,2.41,4.34,3.13.48,1-.73,1.45a14.07,14.07,0,0,1-7.22.24,46.53,46.53,0,0,1-4.81-1.93c-1.93-.72-2.65-1.44-4.58-1.44s-3.13-.24-3.61-.72-1-3.61,0-4.58S101.85,407.91,101.85,407.91Z"/><path class="cls-11" d="M104,329.18s1.44,0,1.44,5.06-1.44,21.91-1.92,26.24-1.69,21.91-1.69,23.11a34.92,34.92,0,0,1-.24,6.74c-.48,2.89-1,3.13-.48,6.74s1.44,11.32,1.44,11.32a8.3,8.3,0,0,0-3.61,1.2c-2.16,1.21-3.37,1.93-5,1.69a6.15,6.15,0,0,1-2.41-.73s-1.68-31.29-1.44-33.94,0-8.19,0-10.59.24-5.54,0-6-1.69-4.58-1.69-4.58-.48,13.24-1.68,15.41-4.34,9.39-4.58,12-.24,1.68-.24,1.68.72,17.1.48,19.26l-1,8.67a7.28,7.28,0,0,0-3.13.72,12.85,12.85,0,0,1-4.82,1.69,2,2,0,0,1-1.68-.72s-1.93-25-1.69-27.45,1-17.81,1.45-20,2.17-9.63,2.17-11.56-1.21-11.07-1.21-11.79-.72-12.76-.72-12.76a42.65,42.65,0,0,1,4.33-1.93C77.06,328.46,104,329.18,104,329.18Z"/><polygon class="cls-12" points="72.48 325.33 72.24 331.11 77.78 330.39 72.48 325.33"/><path class="cls-7" d="M66.46,307.76s2.41,12.27,3.85,14.92,5.06,9.15,5.3,10.11,1.2,7,1.2,7l6.51-9.15L78,306.79Z"/><path class="cls-13" d="M100.17,252.87a5.16,5.16,0,0,0,0-4.1c-1-2.16-2.65-2.4-4.58-2.64s-4.57-.24-6.5,1-3.61,2.17-3.85,4.33-.72,5.54-.72,5.54l2.41,3.61Z"/><path class="cls-7" d="M100.29,251.78s.72,5.3.48,6.5,0,2.89-.24,3.61-1.93,5.54-2.89,6.26a19.45,19.45,0,0,0-1.93,1.69,7.89,7.89,0,0,1-1.44.72l-1,7.71-11.56-6.5s2.89-3.86,2.89-6v-4.1s-1.93-1.44-1.69-3.37.73-2.89,1.21-2.64l.48.24s1.56.36,1.56,1.32v1a4.42,4.42,0,0,0,1.45-2.65c.24-1.68-.24-3.85.48-4.33s1.44-1.68,2.17-1.44,5,1.44,6.26,1.92A10,10,0,0,0,100.29,251.78Z"/><path class="cls-12" d="M86.44,270.44s-3.61-2.89-4.09-2.65-1.68,3.13-1.68,3.13-2.89,2.41-4.58,2.89-6,1.69-7.94,5.54a32.07,32.07,0,0,0-2.65,12c0,2.4.48,12.27.48,12.27v5.54s6-2.17,7.71-1.44a3.53,3.53,0,0,1,1.92,2.64S78.5,328,81.15,330.15a21.59,21.59,0,0,0,14.44,4.09c6.26-.48,5.78.24,7.47-1.93s1.68-3.13,1.68-3.13-.72-6-1.44-10.83a26.73,26.73,0,0,1-.24-7.7s1-12.52.72-14a25.24,25.24,0,0,1,0-6c.24-1.2-.72-7.22-1.93-8.9s-4.81-4.34-5.78-4.34a9.08,9.08,0,0,1-1.92-.24l1.44-3.13-1.53-1.83-.87,6.17s-.73-4.58-1.45-5.06S86.44,270.44,86.44,270.44Z"/></g></svg>