<svg id="Layer_1" data-name="Layer 1" xmlns="http://www.w3.org/2000/svg" xmlns:xlink="http://www.w3.org/1999/xlink" viewBox="0 0 500 500"><defs><style>.cls-1{fill:#f4f5f7;}.cls-2{clip-path:url(#clip-path);}.cls-3{fill:#fff;}.cls-4{fill:#1b98e0;}.cls-5,.cls-6{fill:none;stroke:#c7cbce;stroke-miterlimit:10;stroke-width:25px;}.cls-6{stroke-linecap:round;}</style><clipPath id="clip-path"><circle class="cls-1" cx="249.63" cy="250.2" r="250"/></clipPath></defs><title>registermodal2</title><circle class="cls-1" cx="249.63" cy="250.2" r="250"/><g class="cls-2"><rect class="cls-3" x="-110.62" y="85.2" width="466" height="271" rx="5.45"/><path class="cls-4" d="M349.93,90.2a.45.45,0,0,1,.45.44V350.75a.45.45,0,0,1-.45.45h-455.1a.45.45,0,0,1-.45-.45V90.64a.45.45,0,0,1,.45-.44h455.1m0-10h-455.1a10.44,10.44,0,0,0-10.45,10.44V350.75a10.45,10.45,0,0,0,10.45,10.45h455.1a10.45,10.45,0,0,0,10.45-10.45V90.64A10.44,10.44,0,0,0,349.93,80.2Z"/><rect class="cls-4" x="80.88" y="357.2" width="83" height="64"/><rect class="cls-4" x="67.63" y="421.2" width="110" height="12"/></g><rect class="cls-4" x="94" y="107" width="237" height="18"/><rect class="cls-4" x="94" y="161" width="237" height="25"/><rect class="cls-4" x="94" y="200" width="237" height="28"/><rect class="cls-4" x="94" y="242" width="237" height="31"/><circle class="cls-5" cx="291.82" cy="310" r="91.8"/><line class="cls-6" x1="356.73" y1="374.91" x2="405.77" y2="423.95"/></svg>