<?xml version="1.0" encoding="utf-8"?>
<!-- Generator: Adobe Illustrator 23.1.0, SVG Export Plug-In . SVG Version: 6.00 Build 0)  -->
<svg version="1.1" id="Layer_1" xmlns="http://www.w3.org/2000/svg" xmlns:xlink="http://www.w3.org/1999/xlink" x="0px" y="0px"
	 viewBox="0 0 874.5 747.9" style="enable-background:new 0 0 874.5 747.9;" xml:space="preserve">
<style type="text/css">
	.st0{opacity:0.5;}
	.st1{fill:url(#SVGID_1_);}
	.st2{fill:#F5F5F5;}
	.st3{fill:#E0E0E0;}
	.st4{fill:#1B98E0;}
	.st5{fill:#6C63FF;}
	.st6{fill:url(#SVGID_2_);}
	.st7{fill:#FDA57D;}
	.st8{fill:#333333;}
	.st9{opacity:0.1;enable-background:new    ;}
	.st10{fill:#FDD835;}
	.st11{fill:url(#SVGID_3_);}
	.st12{fill:url(#SVGID_4_);}
	.st13{fill:#4D8AF0;}
	.st14{fill:url(#SVGID_5_);}
	.st15{fill:#FFFFFF;}
	.st16{fill:url(#SVGID_6_);}
	.st17{fill:#BE7C5E;}
	.st18{fill:#3AD29F;}
	.st19{fill:url(#SVGID_7_);}
	.st20{fill:#69F0AE;}
</style>
<title>hiring</title>
<g class="st0">
	
		<linearGradient id="SVGID_1_" gradientUnits="userSpaceOnUse" x1="761.8621" y1="-294.036" x2="761.8621" y2="253.334" gradientTransform="matrix(0.9888 0.1492 0.1492 -0.9888 -112.4647 166.4127)">
		<stop  offset="0" style="stop-color:#808080;stop-opacity:0.25"/>
		<stop  offset="0.54" style="stop-color:#808080;stop-opacity:0.12"/>
		<stop  offset="1" style="stop-color:#808080;stop-opacity:0.1"/>
	</linearGradient>
	<polygon class="st1" points="401.1,541.3 482.8,0 874.5,59.1 792.9,600.4 	"/>
</g>
<rect x="370.5" y="105.2" transform="matrix(0.1492 -0.9888 0.9888 0.1492 248.0699 884.7156)" class="st2" width="535.3" height="386.1"/>
<rect x="631.5" y="131.8" transform="matrix(0.1492 -0.9888 0.9888 0.1492 276.3624 863.3972)" class="st3" width="16.9" height="278.7"/>
<rect x="625.2" y="173.5" transform="matrix(0.1492 -0.9888 0.9888 0.1492 229.7281 892.6848)" class="st3" width="16.9" height="278.6"/>
<rect x="718.4" y="75.8" transform="matrix(0.1492 -0.9888 0.9888 0.1492 472.4707 844.2796)" class="st3" width="16.9" height="143.5"/>
<rect x="712.1" y="130.2" transform="matrix(0.1492 -0.9888 0.9888 0.1492 425.83 873.5812)" class="st4" width="16.9" height="118.2"/>
<rect x="602.2" y="229.6" transform="matrix(0.1492 -0.9888 0.9888 0.1492 171.368 903.3193)" class="st3" width="16.9" height="244.9"/>
<rect x="579.2" y="285.8" transform="matrix(0.1492 -0.9888 0.9888 0.1492 113.0042 913.9483)" class="st3" width="16.9" height="211.1"/>
<rect x="560.3" y="338.3" transform="matrix(0.1492 -0.9888 0.9888 0.1492 57.5802 929.2485)" class="st3" width="16.9" height="185.8"/>
<rect x="579.1" y="358.5" transform="matrix(0.1492 -0.9888 0.9888 0.1492 28.5137 986.5232)" class="st3" width="16.9" height="236.4"/>
<rect x="501.8" y="461.3" transform="matrix(0.1492 -0.9888 0.9888 0.1492 -67.9102 936.5305)" class="st5" width="16.9" height="92.9"/>
<g class="st0">
	
		<linearGradient id="SVGID_2_" gradientUnits="userSpaceOnUse" x1="675.9032" y1="68.853" x2="675.9032" y2="181.9217" gradientTransform="matrix(0.9888 0.1492 0.1492 -0.9888 -112.572 166.4191)">
		<stop  offset="0" style="stop-color:#808080;stop-opacity:0.25"/>
		<stop  offset="0.54" style="stop-color:#808080;stop-opacity:0.12"/>
		<stop  offset="1" style="stop-color:#808080;stop-opacity:0.1"/>
	</linearGradient>
	<path class="st6" d="M630.2,151.5c4.6-30.8-16.6-59.5-47.3-64.1c-30.8-4.6-59.5,16.6-64.1,47.3c-2.8,18.6,3.8,37.3,17.7,50
		c0,0.1,0,0.2,0,0.3c1.6,2,3.5,3.7,5.7,5l0.1-0.2c2.3,2.6,12.7,7.9,25.3,9.7h0.3c8,1.2,16.9,1.1,25.1-1.9c0,0,0.1-0.1,0.2-0.4
		c2.1-0.6,4-1.6,5.8-2.8l0.2-0.6C615.9,185.6,627.5,169.8,630.2,151.5z"/>
</g>
<circle class="st2" cx="574.2" cy="141" r="54.7"/>
<path class="st7" d="M549.3,159.1c0,0-13-0.9-13.2,23.1c1.5,2,3.4,3.6,5.5,4.8l10.9-23.4L549.3,159.1z"/>
<path class="st7" d="M591.1,165.4c0,0,12.7,3,5.8,25.9c-2,1.4-4.3,2.5-6.7,3l-3.5-25.6L591.1,165.4z"/>
<path class="st8" d="M555.7,120.7c0,0-8.8,16.9-11.9,14.7c0,0,28.1,32.7,60.8,9.2c-2.5-6.4-5.8-12.4-9.8-18L555.7,120.7z"/>
<ellipse transform="matrix(0.1492 -0.9888 0.9888 0.1492 369.847 674.1519)" class="st8" cx="576.7" cy="122.2" rx="24.2" ry="24.2"/>
<path class="st9" d="M590.9,165.3l-41.8-6.3l-6.4,16.1c0,0-3.5,7.4-1.1,11.2s27.8,15.6,49,8c2.4-4.2,3.3-9.1,2.7-13.9
	c-1-8.1-0.5-0.6-0.5-0.6L590.9,165.3z"/>
<path class="st9" d="M591.4,165.4l-41.8-6.3l-6.4,16.1c0,0-3.5,7.4-1.1,11.2s27.8,15.6,49,8c2.4-4.2,3.3-9.1,2.7-13.9
	c-1-8.1-0.5-0.6-0.5-0.6L591.4,165.4z"/>
<path class="st10" d="M591.1,165.4l-41.8-6.3l-6.4,16.1c0,0-3.5,7.4-1.1,11.2s27.8,15.6,49,8c2.4-4.2,3.3-9.1,2.7-13.9
	c-1-8.1-0.5-0.6-0.5-0.6L591.1,165.4z"/>
<path class="st9" d="M564.2,147.2l16.7,2.5l0,0l-2.3,15.1c-0.6,3.7-4,6.2-7.7,5.7l-3.4-0.5c-3.7-0.6-6.2-4-5.7-7.7L564.2,147.2
	L564.2,147.2z"/>
<path class="st7" d="M564.3,146.5l16.7,2.5l0,0l-2.3,15.1c-0.6,3.7-4,6.2-7.7,5.7l-3.4-0.5c-3.7-0.6-6.2-4-5.7-7.7L564.3,146.5
	L564.3,146.5z"/>
<path class="st9" d="M564,148.9c5.1,2.8,11,3.7,16.7,2.6l0.3-2.1l-16.7-2.5L564,148.9z"/>
<ellipse transform="matrix(0.1492 -0.9888 0.9888 0.1492 364.0405 677.7977)" class="st7" cx="575.9" cy="127.4" rx="24.2" ry="24.2"/>
<path class="st8" d="M554.3,114.8l45.7,6.9c0,0-1.1-19-18.6-20.5S554.3,114.8,554.3,114.8z"/>
<ellipse transform="matrix(0.1492 -0.9888 0.9888 0.1492 348.7226 650.8529)" class="st7" cx="552.6" cy="122.8" rx="4.2" ry="2.3"/>
<ellipse transform="matrix(0.1492 -0.9888 0.9888 0.1492 381.5648 703.1564)" class="st7" cx="599.4" cy="129.9" rx="4.2" ry="2.3"/>
<path class="st9" d="M554.2,115.4l45.7,6.9c0,0-1.1-19-18.6-20.5S554.2,115.4,554.2,115.4z"/>
<g class="st0">
	
		<linearGradient id="SVGID_3_" gradientUnits="userSpaceOnUse" x1="491.093" y1="404.0872" x2="491.093" y2="951.4572" gradientTransform="matrix(0.99 -0.16 -0.16 -0.99 -137.5215 1130.0011)">
		<stop  offset="0" style="stop-color:#808080;stop-opacity:0.25"/>
		<stop  offset="0.54" style="stop-color:#808080;stop-opacity:0.12"/>
		<stop  offset="1" style="stop-color:#808080;stop-opacity:0.1"/>
	</linearGradient>
	<polygon class="st11" points="0.3,141.2 392.5,77.8 480.1,619.7 87.9,683.1 	"/>
</g>
<rect x="46.4" y="108.7" transform="matrix(0.9868 -0.1618 0.1618 0.9868 -57.7214 43.6907)" class="st2" width="386.1" height="535.3"/>
<rect x="93.5" y="341.5" transform="matrix(0.9868 -0.1618 0.1618 0.9868 -53.5409 42.278)" class="st3" width="278.6" height="16.9"/>
<rect x="100.3" y="383.1" transform="matrix(0.9868 -0.1618 0.1618 0.9868 -60.1916 43.9317)" class="st3" width="278.6" height="16.9"/>
<rect x="205.9" y="197.2" transform="matrix(0.9868 -0.1618 0.1618 0.9868 -29.6143 47.6276)" class="st3" width="143.5" height="16.9"/>
<rect x="225.4" y="238.9" transform="matrix(0.9868 -0.1618 0.1618 0.9868 -36.2651 49.2805)" class="st4" width="118.2" height="16.9"/>
<rect x="107.4" y="427.5" transform="matrix(0.9868 -0.1618 0.1618 0.9868 -67.5033 42.9259)" class="st3" width="244.9" height="16.9"/>
<rect x="114.5" y="471.9" transform="matrix(0.9868 -0.1618 0.1618 0.9868 -74.8137 41.9188)" class="st3" width="211.1" height="16.9"/>
<rect x="121.5" y="515.6" transform="matrix(0.9868 -0.1618 0.1618 0.9868 -81.9613 41.5779)" class="st3" width="185.8" height="16.9"/>
<rect x="127.9" y="553.2" transform="matrix(0.9868 -0.1618 0.1618 0.9868 -87.618 47.2215)" class="st3" width="236.4" height="16.9"/>
<rect x="135.7" y="606.5" transform="matrix(0.9868 -0.1618 0.1618 0.9868 -97.0805 37.5708)" class="st4" width="92.9" height="16.9"/>
<g class="st0">
	
		<linearGradient id="SVGID_4_" gradientUnits="userSpaceOnUse" x1="408.7475" y1="768.979" x2="408.7475" y2="885.2379" gradientTransform="matrix(0.9868 -0.1618 -0.1618 -0.9868 -134.6617 1127.3671)">
		<stop  offset="0" style="stop-color:#808080;stop-opacity:0.25"/>
		<stop  offset="0.54" style="stop-color:#808080;stop-opacity:0.12"/>
		<stop  offset="1" style="stop-color:#808080;stop-opacity:0.1"/>
	</linearGradient>
	<path class="st12" d="M192,235.5c-5.2-31.6-35-53-66.6-47.8s-53,35-47.8,66.6c3.1,19,15.5,35.3,33.1,43.3l0.1,0.3
		c2.2,1.5,4.6,2.5,7.2,3.1v-0.3c3,1.9,14.9,3.7,27.9,1.5h0.3c8.2-1.3,16.9-4.3,24-9.8c0,0,0-0.2,0.1-0.5c1.8-1.3,3.5-2.8,4.8-4.6
		c0-0.2,0-0.4,0-0.7C188.8,273.4,195.1,254.3,192,235.5z"/>
</g>
<circle class="st2" cx="134.9" cy="244.8" r="56.2"/>
<path class="st13" d="M114.4,270.5c0,0-13,3.3-5.6,26.8c2.1,1.5,4.5,2.5,7,3l3.3-26.4L114.4,270.5z"/>
<path class="st13" d="M157.3,263.4c0,0,13.4-1.1,13.8,23.6c-1.5,2-3.4,3.7-5.6,5l-11.6-23.9L157.3,263.4z"/>
<circle class="st8" cx="129.5" cy="225.7" r="24.9"/>
<path class="st13" d="M157.1,263.5l-42.9,7l-1.2,17.8c0,0-1,8.3,2.5,11.3s32.1,6.5,50.4-7.7c1-4.9,0.4-9.9-1.8-14.4
	c-3.6-7.6-0.7-0.5-0.7-0.5L157.1,263.5z"/>
<path class="st13" d="M157.6,263.4l-42.9,7l-1.2,17.8c0,0-1,8.3,2.5,11.3s32.1,6.5,50.4-7.7c1-4.9,0.4-9.9-1.8-14.4
	c-3.6-7.6-0.7-0.5-0.7-0.5L157.6,263.4z"/>
<path class="st13" d="M157.3,263.4l-42.9,7l-1.2,17.8c0,0-1,8.3,2.5,11.3s32.1,6.5,50.4-7.7c1-4.9,0.4-9.9-1.8-14.4
	c-3.6-7.6-0.7-0.5-0.7-0.5L157.3,263.4z"/>
<path class="st9" d="M125.3,254.1l17.2-2.8l0,0l2.6,15.7c0.6,3.7-1.9,7.1-5.6,7.7c0,0,0,0,0,0l-3.9,0.6c-3.7,0.6-7.1-1.9-7.7-5.6
	c0,0,0,0,0,0L125.3,254.1L125.3,254.1z"/>
<path class="st7" d="M125.2,253.4l17.2-2.8l0,0l2.6,15.7c0.6,3.7-1.9,7.1-5.6,7.7c0,0,0,0,0,0l-3.9,0.6c-3.7,0.6-7.1-1.9-7.7-5.6
	c0,0,0,0,0,0L125.2,253.4L125.2,253.4z"/>
<path class="st9" d="M125.6,255.9c5.9,1.2,12,0.2,17.2-2.8l-0.4-2.1l-17.1,2.8L125.6,255.9z"/>
<circle class="st7" cx="130.4" cy="231" r="24.9"/>
<path class="st9" d="M105.4,226.2l46.9-7.7c0,0-7.1-18.3-24.6-14.2S105.4,226.2,105.4,226.2z"/>
<path class="st8" d="M105.3,225.6l46.9-7.7c0,0-7.1-18.3-24.6-14.2S105.3,225.6,105.3,225.6z"/>
<ellipse transform="matrix(0.9872 -0.1595 0.1595 0.9872 -36.1929 19.992)" class="st7" cx="106.4" cy="235.4" rx="2.3" ry="4.4"/>
<ellipse transform="matrix(0.9868 -0.1618 0.1618 0.9868 -34.5401 27.912)" class="st7" cx="154.1" cy="226.1" rx="2.3" ry="4.4"/>
<g class="st0">
	
		<linearGradient id="SVGID_5_" gradientUnits="userSpaceOnUse" x1="480.71" y1="35.16" x2="480.71" y2="582.53" gradientTransform="matrix(1 0 0 -1 0 748)">
		<stop  offset="0" style="stop-color:#808080;stop-opacity:0.25"/>
		<stop  offset="0.54" style="stop-color:#808080;stop-opacity:0.12"/>
		<stop  offset="1" style="stop-color:#808080;stop-opacity:0.1"/>
	</linearGradient>
	<rect x="282.6" y="165.5" class="st14" width="396.2" height="547.4"/>
</g>
<rect x="287.7" y="169.5" class="st15" width="386.1" height="535.3"/>
<g class="st0">
	
		<linearGradient id="SVGID_6_" gradientUnits="userSpaceOnUse" x1="10.76" y1="320.3997" x2="10.76" y2="439.2338" gradientTransform="matrix(-1 0 0 -1 409.23 671.97)">
		<stop  offset="0" style="stop-color:#808080;stop-opacity:0.25"/>
		<stop  offset="0.54" style="stop-color:#808080;stop-opacity:0.12"/>
		<stop  offset="1" style="stop-color:#808080;stop-opacity:0.1"/>
	</linearGradient>
	<path class="st16" d="M339.2,292c0-32.7,26.5-59.2,59.2-59.2s59.2,26.5,59.2,59.2c0,19.7-9.8,38.2-26.2,49.2v0.3
		c-1.9,1.9-4.2,3.3-6.7,4.3l-0.1-0.3c-2.8,2.4-14.5,6.2-27.9,6.1h-0.3c-8.5,0-17.7-1.5-25.8-5.9c0,0-0.1-0.2-0.2-0.5
		c-2.1-1-3.9-2.3-5.6-3.8l-0.1-0.7C348.8,329.7,339.2,311.5,339.2,292z"/>
</g>
<circle class="st2" cx="398.5" cy="292" r="57.5"/>
<path class="st17" d="M375.9,313.9c0,0-13.7,1.1-10.1,26.1c1.9,1.8,4.1,3.2,6.5,4.1l7.7-26.1L375.9,313.9z"/>
<path class="st17" d="M420.3,313.9c0,0,13.7,1.1,10.1,26.1c-1.9,1.8-4.1,3.2-6.5,4.1l-7.7-26.1L420.3,313.9z"/>
<path class="st8" d="M376.5,273c0,0-1,3.1-2.5,6.6c-3.3,7.8,0.5,37.6,8.3,40.8c8.8,3.6,20.3,5.9,32.2,1.5c10.4-3.8,13.6-37.7,6.3-46
	c-0.9-1-1.8-1.9-2.7-2.9H376.5z"/>
<circle class="st8" cx="398.5" cy="271.2" r="25.5"/>
<path class="st9" d="M420.1,313.9h-44.4l-4.2,17.8c0,0-2.4,8.2,0.6,11.9s31.3,11.9,52.1,0.6c1.8-4.7,2-9.9,0.6-14.8
	c-2.4-8.3-0.6-0.6-0.6-0.6L420.1,313.9z"/>
<path class="st9" d="M420.7,313.9h-44.5l-4.2,17.8c0,0-2.4,8.2,0.6,11.9s31.3,11.9,52.1,0.6c1.8-4.7,2-9.9,0.6-14.8
	c-2.4-8.3-0.6-0.6-0.6-0.6L420.7,313.9z"/>
<path class="st18" d="M420.3,313.9h-44.4l-4.2,17.8c0,0-2.4,8.2,0.6,11.9s31.3,11.9,52.1,0.6c1.8-4.7,2-9.9,0.6-14.8
	c-2.4-8.3-0.6-0.6-0.6-0.6L420.3,313.9z"/>
<path class="st9" d="M389.5,299.1h17.8l0,0v16.4c0,3.7-3,6.7-6.7,6.7c0,0,0,0,0,0h-4.3c-3.7,0-6.7-3-6.7-6.7c0,0,0,0,0,0
	L389.5,299.1L389.5,299.1L389.5,299.1z"/>
<path class="st17" d="M389.5,298.5h17.8l0,0v16.4c0,3.7-3,6.7-6.7,6.7c0,0,0,0,0,0h-4.3c-3.7,0-6.7-3-6.7-6.7c0,0,0,0,0,0
	L389.5,298.5L389.5,298.5L389.5,298.5z"/>
<path class="st9" d="M389.6,301c5.7,2.1,12,2.1,17.8,0v-2.2h-17.8V301z"/>
<circle class="st17" cx="398.5" cy="276.7" r="25.5"/>
<path class="st8" d="M374.1,267.1h48.6c0,0-4.2-19.6-22.5-18.4S374.1,267.1,374.1,267.1z"/>
<ellipse class="st17" cx="373.6" cy="275.6" rx="2.4" ry="4.4"/>
<ellipse class="st17" cx="423.3" cy="275.6" rx="2.4" ry="4.4"/>
<path class="st9" d="M374.1,267.7h48.6c0,0-4.2-19.6-22.5-18.4S374.1,267.7,374.1,267.7z"/>
<rect x="339.1" y="401.6" class="st3" width="278.6" height="16.9"/>
<rect x="339.1" y="443.8" class="st3" width="278.6" height="16.9"/>
<rect x="474.3" y="266.5" class="st3" width="143.5" height="16.9"/>
<rect x="486.9" y="308.7" class="st4" width="118.2" height="16.9"/>
<rect x="339.1" y="486" class="st3" width="244.9" height="16.9"/>
<rect x="339.1" y="528.3" class="st3" width="211.1" height="16.9"/>
<rect x="339.1" y="570.5" class="st3" width="185.8" height="16.9"/>
<rect x="339.1" y="612.7" class="st3" width="236.4" height="16.9"/>
<rect x="339.1" y="654.9" class="st4" width="92.9" height="16.9"/>
<g class="st0">
	
		<linearGradient id="SVGID_7_" gradientUnits="userSpaceOnUse" x1="652.07" y1="4.998779e-02" x2="652.07" y2="168.83" gradientTransform="matrix(1 0 0 -1 0 748)">
		<stop  offset="0" style="stop-color:#808080;stop-opacity:0.25"/>
		<stop  offset="0.54" style="stop-color:#808080;stop-opacity:0.12"/>
		<stop  offset="1" style="stop-color:#808080;stop-opacity:0.1"/>
	</linearGradient>
	<circle class="st19" cx="652.1" cy="663.6" r="84.4"/>
</g>
<circle class="st20" cx="652.1" cy="663.6" r="79.4"/>
<polygon class="st15" points="617.6,653 647.4,680.3 689.6,618.2 704.5,630.6 647.4,705.1 605.2,657.9 "/>
</svg>
