<?xml version="1.0" encoding="utf-8"?>
<!-- Generator: Adobe Illustrator 23.1.0, SVG Export Plug-In . SVG Version: 6.00 Build 0)  -->
<svg version="1.1" id="Layer_1" xmlns="http://www.w3.org/2000/svg" xmlns:xlink="http://www.w3.org/1999/xlink" x="0px" y="0px"
	 viewBox="0 0 512 512" style="enable-background:new 0 0 512 512;" xml:space="preserve">
<style type="text/css">
	.st0{fill:#1C98E0;}
</style>
<path class="st0" d="M448,479h-33V74.3c0-9.1-7.4-16.5-16.5-16.5H274.6V16.5c0-9.1-7.4-16.5-16.5-16.5H143.5
	C134.4,0,127,7.4,127,16.5v41.3h-13.4c-9.1,0-16.5,7.4-16.5,16.5V479H64c-9.1,0-16.5,7.4-16.5,16.5S54.9,512,64,512h384
	c9.1,0,16.5-7.4,16.5-16.5S457.1,479,448,479z M160,33h81.5v24.8H160V33z M223,479v-70.2h66V479H223z M322.1,479v-70.2h7.2
	c9.1,0,16.5-7.4,16.5-16.5s-7.4-16.5-16.5-16.5c-57.4,0-93.4,0-146.6,0c-9.1,0-16.5,7.4-16.5,16.5s7.4,16.5,16.5,16.5h7.2V479H130
	V90.8h251.9V479H322.1z M232.3,139.4c0,9.1-7.4,16.5-16.5,16.5h-18.6c-9.1,0-16.5-7.4-16.5-16.5s7.4-16.5,16.5-16.5h18.6
	C224.9,122.8,232.3,130.2,232.3,139.4z M330.3,139.4c0,9.1-7.4,16.5-16.5,16.5h-18.6c-9.1,0-16.5-7.4-16.5-16.5s7.4-16.5,16.5-16.5
	h18.6C322.9,122.8,330.3,130.2,330.3,139.4z M232.3,201.3c0,9.1-7.4,16.5-16.5,16.5h-18.6c-9.1,0-16.5-7.4-16.5-16.5
	s7.4-16.5,16.5-16.5h18.6C224.9,184.8,232.3,192.2,232.3,201.3z M330.3,201.3c0,9.1-7.4,16.5-16.5,16.5h-18.6
	c-9.1,0-16.5-7.4-16.5-16.5s7.4-16.5,16.5-16.5h18.6C322.9,184.8,330.3,192.2,330.3,201.3z M232.3,263.2c0,9.1-7.4,16.5-16.5,16.5
	h-18.6c-9.1,0-16.5-7.4-16.5-16.5s7.4-16.5,16.5-16.5h18.6C224.9,246.7,232.3,254.1,232.3,263.2z M330.3,263.2
	c0,9.1-7.4,16.5-16.5,16.5h-18.6c-9.1,0-16.5-7.4-16.5-16.5s7.4-16.5,16.5-16.5h18.6C322.9,246.7,330.3,254.1,330.3,263.2z
	 M232.3,325.2c0,9.1-7.4,16.5-16.5,16.5h-18.6c-9.1,0-16.5-7.4-16.5-16.5s7.4-16.5,16.5-16.5h18.6
	C224.9,308.6,232.3,316,232.3,325.2z M330.3,325.2c0,9.1-7.4,16.5-16.5,16.5h-18.6c-9.1,0-16.5-7.4-16.5-16.5s7.4-16.5,16.5-16.5
	h18.6C322.9,308.6,330.3,316,330.3,325.2z"/>
</svg>
