<?xml version="1.0" encoding="utf-8"?>
<!-- Generator: Adobe Illustrator 23.1.0, SVG Export Plug-In . SVG Version: 6.00 Build 0)  -->
<svg version="1.1" id="Capa_1" xmlns="http://www.w3.org/2000/svg" xmlns:xlink="http://www.w3.org/1999/xlink" x="0px" y="0px"
	 viewBox="0 0 512 512" style="enable-background:new 0 0 512 512;" xml:space="preserve">
<style type="text/css">
	.st0{fill:#1C98E0;}
</style>
<g>
	<g>
		<path class="st0" d="M511,349.7c0-19.5-12.5-36.1-29.9-42.3V152.6l0,0c11.2-4.5,11.2-20.2,0-24.7L260.6,39.8
			c-3.2-1.3-6.7-1.3-9.9,0L30.8,127.9c-11.1,4.5-11.1,20.2,0,24.7l90.2,36.2V260c0,21.9,15.4,41.7,43.3,55.7
			c24.6,12.3,57.1,19.1,91.3,19.1s66.7-6.8,91.3-19.1c27.9-14,43.3-33.8,43.3-55.7v-71.1l60.8-24.3v142.8
			c-17.4,6.2-29.9,22.8-29.9,42.3c0,17.8,10.5,33.3,25.6,40.5l-20.1,60.3c-2.6,7.8,1.6,16.3,9.5,18.9l0,0c7.8,2.6,16.3-1.6,18.9-9.5
			l11-33l11,33c2.6,7.8,11.1,12.1,18.9,9.5l0,0c7.8-2.6,12.1-11.1,9.5-18.9l-20.1-60.3C500.6,383,511,367.6,511,349.7z M360.4,260
			c0,21.2-44.8,44.9-104.7,44.9S150.9,281.2,150.9,260v-59.2l99.8,40c3.2,1.3,6.7,1.3,9.9,0l99.8-39.9L360.4,260L360.4,260z
			 M255.7,210.5L80.4,140.3l175.2-70.2l175.7,70.2L255.7,210.5z M468.1,364.6c-9.8,1.2-18-7-16.8-16.8c0.8-6.7,6.2-12,12.9-12.9
			c9.8-1.2,18,7,16.8,16.8C480.1,358.4,474.8,363.7,468.1,364.6z"/>
	</g>
</g>
</svg>
