<?xml version="1.0" encoding="utf-8"?>
<!-- Generator: Adobe Illustrator 23.1.0, SVG Export Plug-In . SVG Version: 6.00 Build 0)  -->
<svg version="1.1" id="b8be6891-8c6c-471d-9cef-5646484caaf2"
	 xmlns="http://www.w3.org/2000/svg" xmlns:xlink="http://www.w3.org/1999/xlink" x="0px" y="0px" viewBox="0 0 1044.1 832.6"
	 style="enable-background:new 0 0 1044.1 832.6;" xml:space="preserve">
<style type="text/css">
	.st0{opacity:0.1;fill:#FFFFFF;enable-background:new    ;}
	.st1{fill:#0175B1;}
	.st2{opacity:0.1;enable-background:new    ;}
	.st3{fill:#FFFFFF;}
	.st4{opacity:0.2;}
	.st5{fill:#004763;}
	.st6{fill:url(#SVGID_1_);}
	.st7{fill:#006993;}
	.st8{fill:#FFB9B9;}
	.st9{fill:#CBCDDA;}
	.st10{fill:#4C4C78;}
	.st11{fill:none;stroke:#0000FF;stroke-miterlimit:10;}
	.st12{fill:#472727;}
	.st13{opacity:0.1;}
</style>
<g>
	<path class="st0" d="M34.1,95.1c-26.8,31.4-33.6,71.3-34,109.4c-0.3,26.9,3.4,56.1,25.9,76c29.6,26.1,86.4,31.3,101.1,64.7
		c13,29.7-17.3,59.5-46.3,80.5s-62.4,46.6-57,77.8c3.4,19.9,22.3,35.5,41.1,48.7c35.8,25,76,46.9,121.3,57.5
		c82.3,19.3,171.1-0.7,248.2-30.9c47.5-18.6,102.5-41.4,149.7-22.3c12.4,5.1,23,12.7,34.5,19c33.3,18.3,74.1,25,113.7,30.7
		c58.1,8.4,119.2,15.4,175.1,0.3c56-15.2,104.4-59.5,95.8-106.7c-8.1-44.5-59.5-73.5-100.5-104c-14.5-10.7-29.2-25-25.6-40.6
		c2.9-12.4,16.3-21,28.3-29c63.2-42.3,109.6-100.8,130.9-164.9c10.1-30.2,13.7-65.1-8.8-90.6c-18.1-20.6-49.2-30.4-78.8-38.6
		C893.9,17,837.6,4.3,779.9,0.8S662.6,4,611.3,25.7c-24.6,10.5-46.8,24.2-71.7,34.3c-70.4,28.6-153.4,24.7-232,20.2
		c-28.1-1.6-57.4-4.5-81.8-16.7c-21-10.6-33-18.2-59-19.3C116,41.8,63.2,60.9,34.1,95.1z"/>
	<title>business plan</title>
	<ellipse class="st0" cx="502.7" cy="802.7" rx="430.7" ry="29.9"/>
	<polygon class="st1" points="414.5,310.4 413.4,312.6 406.2,327.3 331.4,480.9 204.5,791.8 186.4,792 313.4,480.9 399.9,303.1 
		406.2,306.3 413.4,309.8 	"/>
	<polygon class="st1" points="637.1,792 622.2,791.8 495.3,480.9 422.5,331.3 413.4,312.6 412.3,310.4 413.4,309.8 422.5,305.3 
		426.8,303.1 512,480.9 	"/>
	<rect x="406.2" y="261.4" class="st1" width="16.2" height="530.6"/>
	<path class="st1" d="M412.5,174c-11.4,0-20.6,9.2-20.6,20.6v7.4c-0.3,11.4,8.8,20.9,20.2,21.1s20.9-8.8,21.1-20.2
		c0-0.3,0-0.6,0-0.9v-7.4C433.1,183.2,423.9,174,412.5,174z M428,202c0,8.6-6.9,15.5-15.5,15.5S397,210.5,397,202v-7.4
		c0-8.6,6.9-15.5,15.5-15.5S428,186,428,194.6l0,0V202z"/>
	<polygon class="st2" points="512,480.9 495.3,480.9 422.5,331.3 422.5,480.9 406.2,480.9 406.2,327.3 331.4,480.9 313.4,480.9 
		399.9,303.1 406.2,306.3 406.2,261.4 422.5,261.4 422.5,305.3 426.8,303.1 	"/>
	<path class="st2" d="M433.1,195.4v6.6c0.3,11.4-8.8,20.9-20.2,21.1s-20.9-8.8-21.1-20.2c0-0.3,0-0.6,0-0.9v-6.6h5.2v6.6
		c0,8.6,6.9,15.5,15.5,15.5S428,210.6,428,202v-6.6H433.1z"/>
	<rect x="100.4" y="196.8" class="st1" width="624.1" height="281.8"/>
	<rect x="111.5" y="205.7" class="st3" width="600.5" height="256.7"/>
	<g class="st4">
		<rect x="170.8" y="233.6" class="st1" width="28.4" height="12.9"/>
	</g>
	<g class="st4">
		<rect x="170.8" y="258.6" class="st1" width="28.4" height="12.9"/>
	</g>
	<g class="st4">
		<rect x="170.8" y="283.6" class="st1" width="28.4" height="12.9"/>
	</g>
	<g class="st4">
		<rect x="170.8" y="308.6" class="st1" width="28.4" height="12.9"/>
	</g>
	<g class="st4">
		<rect x="170.8" y="333.6" class="st1" width="28.4" height="12.9"/>
	</g>
	<g class="st4">
		<rect x="170.8" y="358.6" class="st1" width="28.4" height="12.9"/>
	</g>
	<g class="st4">
		<rect x="170.8" y="383.6" class="st1" width="28.4" height="12.9"/>
	</g>
	<g class="st4">
		<rect x="170.8" y="408.6" class="st1" width="28.4" height="12.9"/>
	</g>
	<g class="st4">
		<rect x="224.3" y="421.6" class="st3" width="28.4" height="12.9"/>
	</g>
	<g class="st4">
		<rect x="274.3" y="421.6" class="st3" width="28.4" height="12.9"/>
	</g>
	<g class="st4">
		<rect x="324.3" y="421.6" class="st3" width="28.4" height="12.9"/>
	</g>
	<g class="st4">
		<rect x="374.3" y="421.6" class="st3" width="28.4" height="12.9"/>
	</g>
	<g class="st4">
		<rect x="424.3" y="421.6" class="st3" width="28.4" height="12.9"/>
	</g>
	<g class="st4">
		<rect x="474.3" y="421.6" class="st3" width="28.4" height="12.9"/>
	</g>
	<g class="st4">
		<rect x="524.3" y="421.6" class="st3" width="28.4" height="12.9"/>
	</g>
	<g class="st4">
		<rect x="574.3" y="421.6" class="st3" width="28.4" height="12.9"/>
	</g>
	<g class="st4">
		<rect x="624.3" y="421.6" class="st3" width="28.4" height="12.9"/>
	</g>
	<rect x="224.3" y="327.6" class="st1" width="28.4" height="81"/>
	<rect x="274.3" y="290.1" class="st1" width="28.4" height="118.6"/>
	<rect x="324.3" y="258.6" class="st1" width="28.4" height="150"/>
	<rect x="374.3" y="274.9" class="st1" width="28.4" height="133.7"/>
	<rect x="424.3" y="246.5" class="st1" width="28.4" height="162.1"/>
	<g class="st4">
		<rect x="474.3" y="308.6" class="st1" width="28.4" height="100"/>
	</g>
	<g class="st4">
		<rect x="524.3" y="308.6" class="st1" width="28.4" height="100"/>
	</g>
	<g class="st4">
		<rect x="574.3" y="308.6" class="st1" width="28.4" height="100"/>
	</g>
	<g class="st4">
		<rect x="624.3" y="308.6" class="st1" width="28.4" height="100"/>
	</g>
	<polygon class="st5" points="621,308.4 378,323.4 378,328.1 626.2,318.2 	"/>
	
		<linearGradient id="SVGID_1_" gradientUnits="userSpaceOnUse" x1="-19.67" y1="-7.3994" x2="-19.67" y2="680.4067" gradientTransform="matrix(1 0 0 -1 788.63 798.28)">
		<stop  offset="0" style="stop-color:#808080;stop-opacity:0.25"/>
		<stop  offset="0.54" style="stop-color:#808080;stop-opacity:0.12"/>
		<stop  offset="1" style="stop-color:#808080;stop-opacity:0.1"/>
	</linearGradient>
	<path class="st6" d="M908.9,407.1c0,0,12.7-20.9,9.3-53.7s-15.6-85.9-15.6-85.9s5.3-29.8-23.5-33.9c0,0-17.9-3.3-30.7-11.4
		c-4.8-3-8.8-6.6-11-11c0,0-0.2,0.5-0.5,1.4c-0.3-0.4-0.5-0.9-0.8-1.4c0,0-0.1,0.2-0.2,0.5l-4.9-7.6c0,0-0.7,0.7-1.8,1.9
		c-2-2.8-3.6-5.8-5-9c1.2-0.3,2.4-0.7,3.6-1.1c1.1-0.4,2.1-1,2.9-1.9c0.7-1,1.2-2.1,1.3-3.3c0.8-3.8,1-7.7,0.7-11.6
		c-0.3-3-0.9-6-0.7-9.1c0.2-3.3,1.4-6.4,1.5-9.6c0.3-5.7-2.6-11.2-6.1-15.8c-2.1-2.7-4.5-5.2-6.3-8.1c-1.6-2.5-2.7-5.3-4.4-7.8
		c-4-5.7-10.7-9.1-17.5-10.3s-13.9-0.4-20.7,0.7c-6,1-12,2.4-18,2.8c-5.2,0.3-9.5-1.5-14.3,2c-3.2,2.4-5.3,6-5.6,10
		c-0.1,0.7,0,1.3,0.2,2c0.3,0.7,0.6,1.3,1,1.9c2.1,4.2-1.1,9.2-0.7,13.9c0.5,4.3,3.9,7.6,8.2,8.1c-0.2,0.4-0.4,0.8-0.6,1.2
		c-9.3,20.9,0.2,45.4,21.1,54.7c4,1.8,8.3,2.9,12.7,3.4l1.9,1.4c4.2,3.3,8.9,7.1,13.5,11.4l-0.1,0.1l-0.7-0.4
		c-1.4,1.1-2.8,2.1-4.4,3c-4.2,2.6-11,5.9-18.6,6.3c0,0-13.7,7.3-18.4,31.2c-6.8,6.1-21.2,17-40.3,19.9c-26.9,4-60,5.3-60,5.3
		s-0.3,0.5-0.7,1.4l-3.1-0.6c0,0,0,0.4-0.1,1l-1.2-0.5c-9.5-4.1-28.5-10.2-30.8,6.5c-3.2,22.4,18.1,19.8,18.1,19.8
		c4.2-1.6,8.5-2.9,12.9-3.9l1.2-0.2c0.2,0.6,0.5,1.1,0.8,1.6h2.9c1,2.1,2.2,4.1,3.6,5.9l67.6-1.5c0,0,11.5-2.5,22.2-0.9
		c-4.7,34.8-10.1,72.9-10.1,72.9s-11.5,60.4-3.4,66.7c4.7-1.6,9.4-2.8,14.3-3.8c0.1,3.7,0.5,7.4,1.2,11.1l5.1,33.7
		c0,0,2,34.4,8.7,55l5.9,28.1l4.9,21.2l2.8,36c3.8,15.3,6.6,30.8,8.3,46.4c2.6,24.2,16.8,63.4,18.7,68.5
		c-4.8,6.8-14.8,18.5-27.3,19.7c-17.8,1.7-18.2,12.5-5.8,16.3s38.6,0,38.6,0l36.9-9.1c-1.1,6.8-1.7,12.2-0.9,12.8
		c2.4,1.7,38.2,11,39.5-3.9c0.1-1.2,0.2-2.4,0.3-3.6c0.5-9.5-0.7-19.1-3.8-28.1c-0.3-0.9-0.5-1.8-0.8-2.7c0.5-0.6,1-1.2,1.5-1.9
		c0,0,2.6-40.1,4.5-54.5c0.2-1.2,0.3-2.6,0.3-4.1c0.9-17.2-5.4-62.6-5.4-62.6s-7.8-29.5-7.5-43.1c0-1.1,0.2-2.2,0.6-3.3
		c0,0,0-0.3-0.1-0.7c0-0.2,0.1-0.4,0.2-0.6c0,0-3.9-27-3.4-43.1c0.1-2.4,0.4-4.8,1-7.1c0.6-3.1,0.9-6.2,1-9.3
		c0.5-11-0.1-30-0.9-47.8c0.1-0.3,0.2-0.6,0.3-1c0.2-1.4,0-2.9-0.5-4.2c-0.1-1.2-0.1-2.3-0.2-3.4c0.3-1.1,0.6-2.3,0.8-3.6h0.5v0.1
		c0,0,33.6-1.6,41.3-10.6c0,0-7.8-24.3-12.1-44L908.9,407.1z M764,331.7l-0.5-0.2c0.8-3,1.9-6.5,3-10.1
		C765.5,325.3,764.7,328.9,764,331.7z M798.1,232.2l0.2,0.1L798.1,232.2L798.1,232.2z M840.1,752.7c-1.8-6.2-9-31.6-8.8-43.7
		c0.1-1.1,0.2-2.1,0.5-3.1c0.7-2.2,1-4.5,1-6.8c0.7-12.6-4.1-35.3-4.1-35.3s-10.8-30.5-10-54.8c0-0.6,0.1-1.2,0.1-1.8
		c0.2-2.3,0.3-4.8,0.4-7.4v-0.1c0.4-9.4,0.3-20.7,0-31.2l-0.1-0.4c-0.4-13.9-1.1-26.5-1.3-31.4c1,7.2,7.4,51.8,10.2,59.1
		c0,0,1.5,20.6,8.4,38l7.5,45.3c0,0,1.9,53.9,5.1,69.1c1.4,6.8,2.7,11.3,3.6,14.3c-1.3,6.1-3.4,16.2-4.8,24.7
		C847.1,781.6,844.1,760.7,840.1,752.7L840.1,752.7z"/>
	<path class="st7" d="M808,754.1c0,0-12.5,22.8-30.2,24.5c-17.7,1.7-18.1,12.3-5.7,16.2s38.3,0,38.3,0l37-9.1
		c0,0-4.5-36.6-10.4-38.5C830.9,745.2,808,754.1,808,754.1z"/>
	<path class="st7" d="M853.1,754.5c0,0-9.4,42.1-7,43.8c2.4,1.7,37.8,10.8,39.1-3.8c0.1-1.2,0.2-2.4,0.3-3.5
		c0.5-9.4-0.7-18.9-3.7-27.8c-1-3-1.7-6.2-1.4-8.6C880.9,748.6,853.1,754.5,853.1,754.5z"/>
	<path class="st8" d="M841.5,221.5c0,0-28.7,70.5-23.6,47.9c3.4-15-18.5-34.9-33.6-46.6c-7.7-6-13.6-9.8-13.6-9.8
		s53.9-62.8,50.1-35.7c-1,7.4,0,15,2.9,21.9C829.6,213.2,841.5,221.5,841.5,221.5z"/>
	<path class="st8" d="M658.1,321.7c-1.5-0.4-4-0.1-6.6,0.4c-4.4,1-8.6,2.3-12.8,3.9c0,0-21.1,2.5-17.9-19.6
		c2.4-16.5,21.2-10.5,30.6-6.4c3.2,1.4,5.3,2.6,5.3,2.6L658.1,321.7z"/>
	<path class="st2" d="M658.1,321.7c-1.5-0.4-4-0.1-6.6,0.4c-2.3-5.8-0.5-19.5-0.2-22.1c3.2,1.4,5.3,2.6,5.3,2.6L658.1,321.7z"/>
	<path class="st9" d="M658.2,300.5l-5.5-1c0,0-2.8,19,0.9,24h6.4L658.2,300.5z"/>
	<path class="st10" d="M769.1,335.2c0,0-16.9-10.1-18.9,2.6s-4.7,34.6-4.7,34.6l-4.7,27.8l-6.1,55.6l0.8,9.5c0,0,18-6.1,22.2-3.9
		s7.7-23.4,7.7-23.4l7-26.4l1.1-55.9L769.1,335.2z"/>
	<path class="st10" d="M760,269.7c0,0-17.5,19.8-44.2,23.8s-59.5,5.3-59.5,5.3s-8.3,14.8,3.7,30.6l67-1.5c0,0,14.8-3.2,26.3,0
		L760,269.7z"/>
	<path class="st11" d="M614.3,350.9"/>
	<path class="st2" d="M820.8,198.4c-6.5,14-17.9,24.3-34.4,24.3c-0.7,0-1.4,0-2.2,0c-7.7-6-13.6-9.8-13.6-9.8s53.9-62.8,50.1-35.7
		C819.5,185.5,818.2,192.2,820.8,198.4z"/>
	<path class="st8" d="M827.5,180.4c0,22.7-18.4,41.1-41.1,41.1c-22.7,0-41.1-18.4-41.1-41.1c0-22.7,18.4-41.1,41.1-41.1
		c22.6,0,41,18.3,41.1,40.9C827.5,180.3,827.5,180.3,827.5,180.4z"/>
	<path class="st9" d="M852.6,431.5c0,0-91.6,8.1-95-3.6s9.3-43.4,9.3-43.4l-4.1-44.2l-0.2-1.7c0,0,11.5-47.9,11.1-51.7
		c-0.4-3.4,18.5-43.6,22.4-51.8c0.5-1,0.7-1.5,0.7-1.5l0.7,0.4l0.3,0.2l4.5,2.6l17.7-4.2l21.4-11.2l2,122.4L852.6,431.5z"/>
	<path class="st2" d="M805,235.1c0,0-6.3-1.7-8.7,4.6c-1,2.7-2.1,5.3-3.4,7.9l-2.4,14.6l-4.5,23l-3.3,101.8l1.5,18.1l8.2-14.6
		l1.5-95.1v-11.8c0.5-10.2,2.8-20.3,6.8-29.7l1.1-2.7l7.1-9.1L805,235.1z"/>
	<path class="st1" d="M803.7,233.9c0,0-6.3-1.7-8.7,4.6c-1,2.7-2.1,5.3-3.4,7.9l-2.4,14.6l-4.5,23l-3.3,101.8l1.5,18.1l8.2-14.6
		l1.5-95v-11.9c0.5-10.2,2.8-20.3,6.8-29.7l1.2-2.7l7.1-9.1L803.7,233.9z"/>
	<path class="st2" d="M830.5,207.6c0,0-21.7,23-29.3,25.7c0,0,3.8,17.4,7.7,20.8c0,0,22.8-23.2,26.8-25.1l3.4-8.3L830.5,207.6z"/>
	<path class="st9" d="M830.5,206.3c0,0-21.7,23-29.3,25.7c0,0,3.8,17.4,7.7,20.8c0,0,22.8-23.2,26.8-25.1l3.4-8.3L830.5,206.3z"/>
	<path class="st2" d="M798.1,233.6l-0.2,0.6l-7,18.6L778.5,288c0,0-0.1,0.4-0.3,1c-2.1,6.4-13.1,41.1-15.3,51.2l-0.2-1.7
		c0,0,11.5-47.9,11.1-51.7c-0.4-3.4,18.5-43.6,22.4-51.8c0.6-0.4,1.1-0.8,1.4-1L798.1,233.6z"/>
	<path class="st1" d="M796.8,233.6l-7.2,19.2L777.2,288c0,0-0.1,0.4-0.3,1c-2.2,6.8-14.6,45.8-15.6,52.9
		c-1.1,7.8-16.8,50.1-16.8,50.1l-8.9,73.2c-8-6.2,3.4-66,3.4-66s12.8-88.7,15.8-118.2s19.3-38.1,19.3-38.1
		c7.5-0.4,14.3-3.7,18.5-6.3C794,235.7,795.4,234.7,796.8,233.6z"/>
	<path class="st2" d="M886.8,704.5c-1.9,14.3-4.5,54-4.5,54c-8.9,13.4-28.7,6.2-28.7,6.2s-2.1-4-5.3-19.1s-5.1-68.5-5.1-68.5
		l-7.5-44.8c-6.8-17.2-8.3-37.6-8.3-37.6c-3-7.9-10.2-59.5-10.2-59.5s3,46.3,1.1,70.8c-1.9,24.5,9.8,57.4,9.8,57.4
		s6.6,30.8,3.2,40.4s8.5,49.1,8.5,49.1c-1,11.5-34.9,6.8-34.9,6.8s-15.9-42.8-18.7-68.5c-1.7-15.5-4.4-30.9-8.2-46l-2.8-35.7
		l-4.9-21.1l-5.8-27.8c-6.6-20.4-8.6-54.5-8.6-54.5l-5.1-33.5c-3.3-16.6,1-36,3.9-46.2c1.3-4.4,2.3-7.1,2.3-7.1
		c2.9,2.1,19.7,4.5,28.4,6.5c4.8,1.1,9.6,1.5,14.5,1.2c21.9-1.7,43.7-5.7,64.8-11.9c1.4-0.4,2.2-0.7,2.2-0.7l0.5,3.8l1.1,9.1
		l1.9,16.2c0,0,5.7,86.3,2.3,98s2.3,51,2.3,51c-3.2,9.3,6.8,47.3,6.8,47.3S888.8,690.3,886.8,704.5z"/>
	<path class="st1" d="M886.8,703.3c-1.9,14.3-4.5,54-4.5,54c-8.9,13.4-28.7,6.2-28.7,6.2s-2.1-4-5.3-19.1s-5.1-68.5-5.1-68.5
		l-7.5-44.9c-6.8-17.2-8.3-37.7-8.3-37.7c-3-7.9-10.2-59.5-10.2-59.5s3,46.3,1.1,70.8c-1.9,24.5,9.8,57.4,9.8,57.4
		s6.6,30.8,3.2,40.4s8.5,49.1,8.5,49.1c-1,11.5-34.9,6.8-34.9,6.8s-15.9-42.7-18.7-68.4c-1.7-15.5-4.4-30.9-8.2-46l-2.8-35.7
		l-4.9-21.1l-5.8-27.8c-6.6-20.4-8.6-54.5-8.6-54.5l-5.1-33.5c-3.3-16.6,1-36,3.9-46.2c1.3-4.4,2.3-7.1,2.3-7.1
		c2.9,2.1,19.7,4.5,28.4,6.5c4.7,1.1,9.6,1.5,14.5,1.2c21.9-1.7,43.7-5.7,64.8-11.9l2.2-0.7l0.5,3.8l1.1,9.1l1.9,16.2
		c0,0,5.7,86.3,2.3,98c-3.4,11.7,2.3,51,2.3,51c-3.2,9.3,6.8,47.2,6.8,47.2S888.8,689,886.8,703.3z"/>
	<path class="st2" d="M827.5,180.4c0,7.2-1.9,14.2-5.4,20.5c-6.4,1.1-13.2-0.1-18-4.4c-3.3-2.9-5.4-6.8-8.2-10.2
		c-1.8-2.1-3.8-4-5.9-5.8c-1.4-1.4-2.9-2.5-4.6-3.4c-1.7-0.9-3.8-0.9-5.5-0.1c-2.3,1.3-3,4.1-4.3,6.3c-1,1.9-2.7,3.4-4.7,4.1
		c-2.1,0.7-4.4-0.1-5.6-1.9c-1.4-2.4-0.4-6.1-2.7-7.6c-0.6-0.3-1.2-0.6-1.9-0.8c-3-1.4-3.3-5.4-3.6-8.7c-0.1-1.6-0.5-3.4-1.8-4.3
		s-3.2-0.4-4.8-0.4c-0.5,0-1,0-1.4-0.1c9.2-20.7,33.5-30.1,54.2-20.9C818,149.4,827.5,164.2,827.5,180.4L827.5,180.4z"/>
	<path class="st12" d="M746.4,127c-3.2,2.4-5.2,6-5.5,9.9c-0.1,0.7,0,1.3,0.2,1.9c0.3,0.7,0.6,1.3,1,1.9c2.1,4.2-1.1,9.1-0.7,13.8
		c0.6,4.5,4.4,8,9,8c1.6,0,3.4-0.5,4.8,0.4s1.7,2.7,1.8,4.3c0.3,3.3,0.6,7.3,3.6,8.7c0.6,0.2,1.3,0.5,1.9,0.8
		c2.3,1.5,1.3,5.2,2.7,7.6c1.3,1.8,3.5,2.6,5.6,1.9c2-0.7,3.7-2.2,4.7-4.1c1.3-2.3,2.1-5,4.3-6.3c1.8-0.8,3.8-0.8,5.5,0.1
		c1.7,0.9,3.3,2,4.6,3.4c2.1,1.8,4,3.7,5.9,5.8c2.8,3.3,4.9,7.3,8.2,10.2c6.2,5.4,15.6,6,23.3,2.9c1.1-0.4,2.1-1,2.9-1.8
		c0.7-1,1.1-2.1,1.3-3.3c0.8-3.8,1-7.6,0.7-11.4c-0.3-3-0.9-6-0.7-9c0.2-3.2,1.4-6.3,1.5-9.6c0.3-5.7-2.5-11.1-6-15.6
		c-2.1-2.7-4.4-5.2-6.2-8.1c-1.6-2.5-2.7-5.3-4.4-7.7c-3.9-5.6-10.6-9-17.4-10.2s-13.8-0.4-20.5,0.7c-5.9,1-11.9,2.4-17.9,2.8
		C755.4,125.3,751.1,123.5,746.4,127z"/>
	<path class="st2" d="M796.8,233.6l-7.2,19.2L777.2,288c0,0-0.1,0.4-0.3,1v0l15.6-52.5C794,235.7,795.4,234.7,796.8,233.6z"/>
	<path class="st8" d="M874.4,453.8c0,0,0.7,23.3-5.5,29.1l-16.7-31.5l14-6.8L874.4,453.8z"/>
	<path class="st2" d="M913.4,462.3c-7.7,8.9-41,10.5-41,10.5l-33-52c0,0-7.8-5.4-22.5-29.8s-14.2-43.2-13.4-57.3s10-54.4,10-54.4
		c1.4-9.1,22-66,22-66c2.2,4.3,6.2,7.9,10.9,10.9c12.7,8,30.4,11.3,30.4,11.3c28.6,4.1,23.3,33.6,23.3,33.6s0.3,114.7-1.4,128.4
		S913.4,462.3,913.4,462.3z"/>
	<polygon class="st9" points="874.8,458.3 873.9,466.8 862.3,462.5 853.8,449.7 860.2,444.7 	"/>
	<path class="st2" d="M874.4,425.3l-6.1,0.6l-58.4,5.8c-9.4,0.9-18.9,0.5-28.1-1.4l-27.1-5.4c1.3-4.4,2.3-7.1,2.3-7.1
		c2.9,2.1,19.7,4.5,28.4,6.5c4.7,1.1,9.6,1.5,14.5,1.2c21.9-1.7,43.7-5.7,64.8-11.9l2.6,3.1L874.4,425.3z"/>
	<g class="st13">
		<path d="M757.6,418.2c-0.2-0.1-0.4-0.2-0.6-0.3c0,0,0,0.1-0.1,0.1L757.6,418.2z"/>
		<path d="M881.8,638.4c0,0-10-37.9-6.8-47.2c0,0-5.7-39.3-2.3-51c3.4-11.7-2.3-98-2.3-98l-1.9-16.2l-1.1-9.1l-0.4-3.8l-2.2,0.7
			l-1.4,0.4l0.2,1.5l1.1,9.1l1.9,16.2c0,0,5.7,86.3,2.3,98c-3.4,11.7,2.3,51,2.3,51c-3.2,9.3,6.8,47.2,6.8,47.2s7,50.6,5.1,64.9
			s-4.5,54-4.5,54c-6.5,9.8-18.8,8.6-25,7.2l0.1,0.2c0,0,19.8,7.2,28.7-6.2c0,0,2.5-39.8,4.5-54S881.8,638.4,881.8,638.4z"/>
		<path d="M831.4,702.4c3.4-9.6-3.2-40.4-3.2-40.4s-11.7-33-9.8-57.4c0.8-10.2,0.8-24.2,0.4-37c-2.7-16.6-5.3-35-5.3-35
			s3,46.3,1.1,70.8c-1.9,24.5,9.8,57.4,9.8,57.4s6.6,30.8,3.2,40.4c-3.4,9.6,8.5,49.1,8.5,49.1c-0.8,9.2-22.7,8-31.4,7.2l0.3,0.9
			c0,0,33.8,4.7,34.9-6.8C839.9,751.5,828,712,831.4,702.4z"/>
	</g>
	<path class="st1" d="M914.6,462.3c-7.7,8.9-41,10.5-41,10.5l-33-52c0,0-7.8-5.4-22.5-29.8s-14.2-43.2-13.4-57.3s10-54.4,10-54.4
		c1.4-9.1,22-66,22-66c2.2,4.3,6.2,7.9,10.9,10.9c12.7,8,30.4,11.3,30.4,11.3c28.5,4.1,23.3,33.6,23.3,33.6s0.3,114.7-1.4,128.4
		S914.6,462.3,914.6,462.3z"/>
	<path class="st2" d="M842.9,241.6l-7.2,2.7l4.8,3.4l-35.7,86.1c0.8-14,10-54.4,10-54.4c1.4-9.1,22-66,22-66
		c2.2,4.3,6.2,7.9,10.9,10.9L842.9,241.6z"/>
	<polygon class="st2" points="851.5,395 888,385.6 892.8,400.5 855.5,409.5 	"/>
	<path class="st2" d="M872.4,247.7c0,0-16.6,15.6-10.3,50.4s16.3,72.6,16.3,72.6l-27,74.8c0,0,18.8,19.6,28.1,22l27-59.8
		c0,0,12.6-20.7,9.3-53.3s-15.5-85.2-15.5-85.2S900.1,237.1,872.4,247.7z"/>
	<path class="st1" d="M873.7,247.7c0,0-16.6,15.6-10.4,50.4s16.3,72.6,16.3,72.6l-27,74.8c0,0,18.8,19.6,28.1,22l27-59.8
		c0,0,12.6-20.7,9.3-53.3s-15.5-85.2-15.5-85.2S901.4,237.1,873.7,247.7z"/>
	<path class="st2" d="M853.5,447c0,0,21,29.1,19.5,36.9s-7.8,3.6-7.8,3.6l-8.3-11.4l-7.5-21.3C849.4,454.9,850.2,445.7,853.5,447z"
		/>
	<path class="st2" d="M850.9,447c0,0,21,29.1,19.5,36.9s-7.8,3.6-7.8,3.6l-8.3-11.4l-7.4-21.3C846.9,454.9,847.6,445.7,850.9,447z"
		/>
	<path class="st1" d="M852.2,447c0,0,21,29.1,19.5,36.9s-7.8,3.6-7.8,3.6l-8.3-11.4l-7.4-21.3C848.2,454.9,848.9,445.7,852.2,447z"
		/>
	<g id="XMLID_2_">
		<g>
			<path class="st1" d="M760,269.7l-6.7,58.2c-11.5-3.2-26.3,0-26.3,0l-67,1.5c-12-15.8-3.7-30.6-3.7-30.6s32.9-1.3,59.5-5.3
				C742.4,289.5,760,269.7,760,269.7z"/>
		</g>
		<g>
		</g>
	</g>
	<g id="XMLID_1_">
		<g>
			<path class="st1" d="M769.1,335.2l4.5,20.4l-1.1,55.9l-7,26.4c0,0-3.4,25.5-7.7,23.4c-4.2-2.1-22.2,3.9-22.2,3.9l-0.9-9.5
				l6.1-55.6l4.7-27.8c0,0,2.7-21.8,4.7-34.6C752.2,325.1,769.1,335.2,769.1,335.2z"/>
		</g>
		<g>
		</g>
	</g>
</g>
</svg>
