<svg id="Layer_1" data-name="Layer 1" xmlns="http://www.w3.org/2000/svg" viewBox="0 0 500 500"><defs><style>.cls-1{fill:#3096d3;}</style></defs><title>interview</title><path class="cls-1" d="M88.39,454.74a8.28,8.28,0,1,0,2.42,5.85A8.31,8.31,0,0,0,88.39,454.74Z"/><path class="cls-1" d="M345.3,396.23a8.29,8.29,0,1,0,2.42,5.85A8.35,8.35,0,0,0,345.3,396.23Z"/><path class="cls-1" d="M433.61,178.8a34.64,34.64,0,0,0,10.15-24.52v-6.62a34.77,34.77,0,1,0-69.54,0v6.62a34.67,34.67,0,0,0,10.14,24.52,51.47,51.47,0,0,0-26,36.74H320.41A24.83,24.83,0,0,0,297,248.65H199.77a24.83,24.83,0,0,0-23.41-33.11H138.44a51.45,51.45,0,0,0-26-36.74,34.64,34.64,0,0,0,10.15-24.52v-6.62a34.78,34.78,0,1,0-69.55,0v6.62A34.64,34.64,0,0,0,63.15,178.8a51.37,51.37,0,0,0-26.7,45v92.86A47.1,47.1,0,0,0,83.5,363.73H149v79.06a26,26,0,0,0,1.8,9.52H118.13a8.28,8.28,0,0,0,0,16.56h296.1a8.28,8.28,0,0,0,0-16.56H345.92a26,26,0,0,0,1.8-9.52v-9.52a8.28,8.28,0,1,0-16.55,0v9.52a9.52,9.52,0,0,1-19,0V338.27a23.42,23.42,0,0,1,23.38-23.39H443.76v1.8a30.53,30.53,0,0,1-30.5,30.49H339.45a8.28,8.28,0,0,0-8.28,8.28V368.7a8.28,8.28,0,0,0,16.55,0v-5h65.54a47.1,47.1,0,0,0,47.05-47.05V223.82A51.37,51.37,0,0,0,433.61,178.8Zm-42.84-31.14a18.22,18.22,0,1,1,36.43,0v6.62a18.22,18.22,0,0,1-36.43,0Zm-321.21,0a18.22,18.22,0,1,1,36.43,0v6.62a18.22,18.22,0,0,1-36.43,0ZM53,223.82a34.78,34.78,0,0,1,69.55,0,8.28,8.28,0,0,0,8.27,8.28h45.54a8.28,8.28,0,1,1,0,16.55H128.15a35.57,35.57,0,0,1-31.42-18.81,8.28,8.28,0,0,0-14.6,7.82A52.12,52.12,0,0,0,123,265a8.29,8.29,0,0,0-.46,2.74v30.63H53Zm102.15,74.51H139.1V267.7a8.21,8.21,0,0,0-.38-2.49h16.43a33,33,0,0,0,0,33.12Zm29.49,144.46a9.53,9.53,0,0,1-19,0V355.45a8.28,8.28,0,0,0-8.27-8.28H83.5A30.53,30.53,0,0,1,53,316.68v-1.8H161.25a23.43,23.43,0,0,1,23.39,23.39Zm38.91,9.52H199.39a26,26,0,0,0,1.8-9.52V338.27a39.72,39.72,0,0,0-7.59-23.39h30Zm33.11,0H240.1V314.88h16.56Zm40.72,0H273.22V314.88h29.94a39.72,39.72,0,0,0-7.59,23.39V442.79A26,26,0,0,0,297.38,452.31Zm15.57-154H183.81a16.56,16.56,0,1,1,0-33.12H313a16.56,16.56,0,1,1,0,33.12Zm44.71-30.63v30.63H341.61a33,33,0,0,0,0-33.12H358A8.21,8.21,0,0,0,357.66,267.7Zm86.1,30.63H374.22V267.7a8.3,8.3,0,0,0-.47-2.74,52.11,52.11,0,0,0,40.88-27.3,8.28,8.28,0,0,0-14.6-7.82,35.56,35.56,0,0,1-31.41,18.81H320.41a8.28,8.28,0,1,1,0-16.55h45.53a8.28,8.28,0,0,0,8.28-8.28,34.77,34.77,0,1,1,69.54,0Z"/><path class="cls-1" d="M308,45H188.77a24.86,24.86,0,0,0-24.83,24.84V151a24.86,24.86,0,0,0,24.83,24.83h28.86l24.9,24.9a8.28,8.28,0,0,0,11.7,0l24.9-24.9H308A24.86,24.86,0,0,0,332.82,151V69.84A24.86,24.86,0,0,0,308,45Zm8.28,106a8.3,8.3,0,0,1-8.28,8.28H275.7a8.28,8.28,0,0,0-5.85,2.42l-21.47,21.47-21.46-21.47a8.3,8.3,0,0,0-5.86-2.42H188.77A8.29,8.29,0,0,1,180.5,151V69.84a8.28,8.28,0,0,1,8.27-8.28H308a8.29,8.29,0,0,1,8.28,8.28Z"/><path class="cls-1" d="M215.32,101.38a8.26,8.26,0,1,0,2.43,5.85A8.29,8.29,0,0,0,215.32,101.38Z"/><path class="cls-1" d="M254.23,101.38a8.26,8.26,0,1,0,2.43,5.85A8.33,8.33,0,0,0,254.23,101.38Z"/><path class="cls-1" d="M293.14,101.38a8.26,8.26,0,1,0,2.43,5.85A8.29,8.29,0,0,0,293.14,101.38Z"/></svg>