<svg id="Layer_1" data-name="Layer 1" xmlns="http://www.w3.org/2000/svg" viewBox="0 0 500 500"><defs><style>.cls-1{fill:#1b98e0;}</style></defs><title>offer</title><path class="cls-1" d="M401.64,11.2H179.81a7,7,0,1,0,0,14H401.64A19.37,19.37,0,0,1,421,44.5V454.31a19.37,19.37,0,0,1-19.35,19.35H110.9a19.38,19.38,0,0,1-19.36-19.35V44.5A19.39,19.39,0,0,1,110.9,25.15h41.44a7,7,0,1,0,0-13.95H110.9A33.34,33.34,0,0,0,77.59,44.5V454.31a33.35,33.35,0,0,0,33.31,33.31H401.64A33.35,33.35,0,0,0,435,454.31V44.5a33.34,33.34,0,0,0-33.31-33.3Z"/><path class="cls-1" d="M392,211.62H148.3a7,7,0,0,0,0,14H392a7,7,0,0,0,0-14Z"/><path class="cls-1" d="M399,256.23a7,7,0,0,0-7-7H148.3a7,7,0,0,0,0,14H392A7,7,0,0,0,399,256.23Z"/><path class="cls-1" d="M256.27,286.88h-108a7,7,0,0,0,0,14h108a7,7,0,1,0,0-14Z"/><path class="cls-1" d="M256.27,324.51h-108a7,7,0,0,0,0,14h108a7,7,0,0,0,0-14Z"/><path class="cls-1" d="M141.32,143.34a7,7,0,0,0,7,7H392a7,7,0,0,0,0-14H148.3a7,7,0,0,0-7,7Z"/><path class="cls-1" d="M392,174H148.3a7,7,0,0,0,0,14H392a7,7,0,0,0,0-14Z"/><path class="cls-1" d="M122.53,225.61a7,7,0,1,0-7-7A7,7,0,0,0,122.53,225.61Z"/><path class="cls-1" d="M122.53,150.34a7,7,0,1,0-7-7A7,7,0,0,0,122.53,150.34Z"/><path class="cls-1" d="M122.53,188a7,7,0,1,0-7-7A7,7,0,0,0,122.53,188Z"/><path class="cls-1" d="M122.53,263.23a7,7,0,1,0-7-7A7,7,0,0,0,122.53,263.23Z"/><path class="cls-1" d="M122.53,300.86a7,7,0,1,0-7-7A7,7,0,0,0,122.53,300.86Z"/><path class="cls-1" d="M122.53,338.49a7,7,0,1,0-7-7A7,7,0,0,0,122.53,338.49Z"/><path class="cls-1" d="M256.27,362.14h-108a7,7,0,0,0,0,14h108a7,7,0,0,0,0-14Z"/><path class="cls-1" d="M122.53,376.12a7,7,0,1,0-7-7A7,7,0,0,0,122.53,376.12Z"/><path class="cls-1" d="M263.25,406.75a7,7,0,0,0-7-7h-108a7,7,0,1,0,0,14h108A7,7,0,0,0,263.25,406.75Z"/><path class="cls-1" d="M122.53,451.36h39.15a7,7,0,0,0,0-14H122.53a7,7,0,1,0,0,14Z"/><path class="cls-1" d="M345.73,451.36h39.16a7,7,0,0,0,0-14H345.73a7,7,0,0,0,0,14Z"/><path class="cls-1" d="M122.53,413.75a7,7,0,1,0-7-7A7,7,0,0,0,122.53,413.75Z"/><path class="cls-1" d="M225.15,61a7,7,0,0,0,0-14H204.43a7,7,0,0,0-7,7v51.11a7,7,0,1,0,14,0V86.09h12.1a7,7,0,0,0,0-14h-12.1V61Z"/><path class="cls-1" d="M277.93,61a7,7,0,1,0,0-14H257.21a7,7,0,0,0-7,7v51.11a7,7,0,0,0,14,0V86.09h12.09a7,7,0,1,0,0-14H264.19V61Z"/><path class="cls-1" d="M327.68,60.58a7,7,0,1,0,0-14h-21.5a7,7,0,0,0-7,7v51a7,7,0,0,0,7,7h21.5a7,7,0,1,0,0-14H313.16V86.09H326.1a7,7,0,0,0,0-14H313.16V60.58Z"/><path class="cls-1" d="M396.47,66.75c0-11.23-9.48-20.36-21.12-20.36h-13.7a7,7,0,0,0-7,7v51.49a7,7,0,0,0,14,0V91.72l15.62,17.75a7,7,0,1,0,10.48-9.22L382.19,86a20.45,20.45,0,0,0,14.28-19.25Zm-21.12,6.4-6.65,0c0-2.42,0-4.92,0-6.42,0-1.29,0-3.86,0-6.41h6.69c3.88,0,7.16,2.94,7.16,6.41s-3.28,6.4-7.16,6.4Z"/><path class="cls-1" d="M147.05,46.87A32.73,32.73,0,1,0,179.78,79.6,32.77,32.77,0,0,0,147.05,46.87Zm0,51.49A18.77,18.77,0,1,1,165.83,79.6,18.79,18.79,0,0,1,147.05,98.36Z"/><path class="cls-1" d="M339.57,412.77a7,7,0,0,0,7-7V402.3h2.77a23,23,0,0,0,23-23v-12a23,23,0,0,0-23-23h-2.77v-30h2.77a9,9,0,0,1,9,9v1.34a7,7,0,1,0,14,0v-1.34a23,23,0,0,0-23-23h-2.77v-5.63a7,7,0,0,0-14,0v5.63h-2.77a23,23,0,0,0-23,23v12a23,23,0,0,0,23,23h2.77v30h-2.77a9,9,0,0,1-9-9,7,7,0,0,0-14,0,23,23,0,0,0,23,23h2.77v3.49A7,7,0,0,0,339.57,412.77Zm-9.75-68.37a9,9,0,0,1-9-9v-12a9,9,0,0,1,9-9h2.78v30Zm16.73,14h2.77a9,9,0,0,1,9,9v12a9,9,0,0,1-9,9h-2.77Z"/></svg>