<svg id="Layer_1" data-name="Layer 1" xmlns="http://www.w3.org/2000/svg" viewBox="0 0 445.52 445.54"><defs><style>.cls-1{fill:#1b98e0;}</style></defs><title>search-01</title><path class="cls-1" d="M301.51,218.18a76.58,76.58,0,1,0,76.57,76.58,76.66,76.66,0,0,0-76.57-76.58Zm0,135.75a59.17,59.17,0,1,1,59.17-59.17,59.24,59.24,0,0,1-59.17,59.17Z" transform="translate(-31.74 -25)"/><path class="cls-1" d="M289.31,25H57.85A26.14,26.14,0,0,0,31.74,51.11V444.43a26.14,26.14,0,0,0,26.11,26.11H357.18a26.13,26.13,0,0,0,26.1-26.11V418.26l43.63,43.64a29.51,29.51,0,0,0,41.73-41.74L399.58,351.1a113,113,0,0,0-16.3-134.43V119h0a8.69,8.69,0,0,0-2.53-6.15L295.46,27.55A8.65,8.65,0,0,0,289.31,25v0ZM57.85,453.13a8.71,8.71,0,0,1-8.7-8.7V51.11a8.71,8.71,0,0,1,8.7-8.71H280.61v59.17a26.13,26.13,0,0,0,26.1,26.1h59.16v74.12a113.09,113.09,0,0,0-172,127.89H87.57a8.7,8.7,0,0,0,0,17.4H198.69a8.74,8.74,0,0,0,2.36-.33,113.06,113.06,0,0,0,156.79,46.08l8,8v43.57a8.71,8.71,0,0,1-8.7,8.7ZM306.71,110.27a8.71,8.71,0,0,1-8.7-8.7V54.71l55.56,55.56Zm-5.2,280.21a95.72,95.72,0,1,1,95.72-95.72,95.83,95.83,0,0,1-95.72,95.72Zm146.27,62.65a12.07,12.07,0,0,1-8.56-3.54l-66.78-66.78a114.44,114.44,0,0,0,17.12-17.11l66.77,66.77a12.1,12.1,0,0,1-8.55,20.66Z" transform="translate(-31.74 -25)"/><path class="cls-1" d="M301.51,255.6a8.71,8.71,0,0,0,0,17.41,21.78,21.78,0,0,1,21.75,21.75,8.7,8.7,0,1,0,17.4,0,39.2,39.2,0,0,0-39.15-39.16Z" transform="translate(-31.74 -25)"/><path class="cls-1" d="M165.88,269.34H87.57a8.71,8.71,0,0,0,0,17.41h78.31a8.71,8.71,0,1,0,0-17.41Z" transform="translate(-31.74 -25)"/><path class="cls-1" d="M171,209H87.57a8.7,8.7,0,1,0,0,17.4H171a8.7,8.7,0,1,0,0-17.4Z" transform="translate(-31.74 -25)"/><path class="cls-1" d="M197.08,390a8.69,8.69,0,1,0,6.16,2.55,8.76,8.76,0,0,0-6.16-2.55Z" transform="translate(-31.74 -25)"/><path class="cls-1" d="M161.34,390H87.57a8.7,8.7,0,1,0,0,17.4h73.77a8.7,8.7,0,0,0,0-17.4Z" transform="translate(-31.74 -25)"/><path class="cls-1" d="M87.57,148.68a8.69,8.69,0,1,0,6.15,2.54,8.79,8.79,0,0,0-6.15-2.54Z" transform="translate(-31.74 -25)"/><path class="cls-1" d="M254.51,148.68H124.45a8.7,8.7,0,1,0,0,17.4H254.51a8.7,8.7,0,1,0,0-17.4Z" transform="translate(-31.74 -25)"/><path class="cls-1" d="M254.51,88.34H87.57a8.71,8.71,0,0,0,0,17.41H254.51a8.71,8.71,0,1,0,0-17.41Z" transform="translate(-31.74 -25)"/></svg>