<?xml version="1.0" encoding="utf-8"?>
<!-- Generator: Adobe Illustrator 23.1.0, SVG Export Plug-In . SVG Version: 6.00 Build 0)  -->
<svg version="1.1" id="Layer_1" xmlns="http://www.w3.org/2000/svg" xmlns:xlink="http://www.w3.org/1999/xlink" x="0px" y="0px"
	 viewBox="0 0 461.9 442.5" style="enable-background:new 0 0 461.9 442.5;" xml:space="preserve">
<style type="text/css">
	.st0{fill:#FFFFFF;}
	.st1{fill:#FF7373;}
	.st2{fill:#DBDBDB;}
</style>
<title>Asset 5</title>
<g id="Layer_3">
	<g>
		<path class="st0" d="M394.8,4.5l-60,71.1l-15.6-13.2l17.9-6.6c0,0,5.2-2.7,5.4-2.9c0.3-0.1,5.8-3.9,5.8-3.9l4.6-3.8l3.9-3.3
			l1.9-1.6l0.1-0.1l-0.3-0.3l1.3-2.8l2.1-2.9l1.6,0.1h0.1l0.5,0.4L380,19.6c0,0,0.5-1.5,0.8-2s1.4-0.8,1.4-0.8s0.4-0.5,0.7-1
			c0.2-0.5,1.5-1.9,2.1-2.5s1.7-0.1,1.7-0.1l7.5-8l0.3-0.3L394.8,4.5z"/>
		<path class="st0" d="M350.4,88.8l-15.6-13.2l60-71.1l-0.3,0.4l-0.3,0.4l-6.6,8.8c0,0,0.7,1.1,0.1,1.7c-0.5,0.7-1.7,2.2-2.1,2.5
			s-0.9,0.8-0.9,0.8s-0.2,1.1-0.6,1.5s-1.8,1.1-1.8,1.1L370.2,40l0.5,0.4v0.1l0.4,1.5l-2.6,2.5l-2.6,1.8l-0.3-0.3l-0.1,0.2l-1.3,2.1
			l-2.6,4.4l-3,5.2c0,0-2.8,6.1-2.9,6.4s-1.9,5.8-1.9,5.8L350.4,88.8z"/>
		<polygon class="st1" points="371,41.9 368.5,44.5 365.9,46.3 365.6,46 365.5,46.2 358.6,40.4 358.7,40.3 358.4,40 359.8,37.1 
			361.8,34.2 363.4,34.3 370.6,40.4 		"/>
	</g>
</g>
<g id="Layer_4">
	<path class="st0" d="M154.7,21.3l12.5-5.9c0,0,13.5-1,16.1-3.1c2.5-2,2.6-2.3,2.6-2.3l0.1,1.5c0,0,3.2-1.1,4-1.9s1.1-1.1,1.1-1.1
		l0.3,1.2l1.3-0.3l-4.6,12.2c0,0,7.9-2.1,9.1-2.7s2.7-2.3,2.7-2.3l0.1,1.5c0,0,3.4-0.8,4.2-2s0.8-1.2,0.8-1.2l0.8,1.6l0.9-0.4
		c0,0-0.3,1.3-2.1,2.4s-8.6,5.3-8.6,5.3l7.1,14.9l-53.7,25.5l-7.1-14.9c0,0-8.2,3-9.2,3.2s-1.9-0.1-1.9-0.1l1.1-0.8l-0.9-1.6
		c0,0,1.2,0.2,2.6-0.2c1.3-0.5,3.2-1.2,3.2-1.2l-0.8-1.3c0,0,1.2,0.3,2.4-0.3c1.2-0.5,8-5.2,8-5.2L135,37l1.2-0.6l-0.9-1.3
		c0,0,3.5-0.2,4.3-0.9s0.1-1.8,0.1-1.8s1-0.1,2.5-0.8c1.6-0.8,7.6-5.4,9-6.7C152.7,23.6,154.7,21.3,154.7,21.3z"/>
</g>
<g>
	<polygon class="st0" points="264.4,384.8 367,325.3 365.5,391.4 365.5,391.4 365,408.7 342.8,421.6 326.5,414 	"/>
	<polygon class="st2" points="326.5,414 324.9,397.1 339.9,406.2 342.4,391.9 352,399.2 359.3,377.2 365.5,391.4 365.5,391.4 
		365,408.7 342.8,421.6 	"/>
</g>
<g>
	<g id="Layer_1-2">
		<rect x="228.8" y="0.5" class="st0" width="18" height="51"/>
		<rect x="254.8" y="12.5" class="st0" width="13" height="41"/>
		<rect x="220.8" y="367.5" class="st0" width="17" height="75"/>
		<rect x="247.8" y="373.5" class="st0" width="14" height="45"/>
		<rect x="268.2" y="22" transform="matrix(0.2775 -0.9607 0.9607 0.2775 185.211 309.2805)" class="st0" width="60" height="19"/>
		
			<rect x="364.7" y="77.5" transform="matrix(0.7071 -0.7071 0.7071 0.7071 49.6207 301.8646)" class="st0" width="49" height="27"/>
		<rect x="16.8" y="208.5" class="st0" width="56" height="16"/>
		<rect x="50.8" y="230.5" class="st0" width="22" height="40"/>
		
			<rect x="29.1" y="285.9" transform="matrix(0.9659 -0.2589 0.2589 0.9659 -73.499 23.6921)" class="st0" width="48.2" height="10"/>
		<rect x="41.5" y="288.9" transform="matrix(0.9665 -0.2566 0.2566 0.9665 -74.2467 26.782)" class="st0" width="48" height="18"/>
		
			<rect x="70.8" y="321.5" transform="matrix(0.6693 -0.743 0.743 0.6693 -216.3534 178.9201)" class="st0" width="44" height="22"/>
		<rect x="111.8" y="351.4" transform="matrix(0.5 -0.866 0.866 0.5 -245.6698 300.3251)" class="st0" width="51" height="23"/>
		
			<rect x="153.8" y="374.4" transform="matrix(0.302 -0.9533 0.9533 0.302 -242.4358 443.7094)" class="st0" width="56" height="26"/>
		
			<rect x="30.2" y="140" transform="matrix(0.2775 -0.9607 0.9607 0.2775 -142.8768 164.9718)" class="st0" width="16" height="75"/>
		
			<rect x="43.8" y="120.5" transform="matrix(0.3478 -0.9376 0.9376 0.3478 -109.9911 147.8492)" class="st0" width="15" height="65"/>
		<rect x="57.8" y="100.5" transform="matrix(0.5 -0.866 0.866 0.5 -54.5286 130.5022)" class="st0" width="56" height="24"/>
		<rect x="97.3" y="32.9" transform="matrix(0.6125 -0.7905 0.7905 0.6125 -7.9786 109.5757)" class="st0" width="21" height="60"/>
		
			<rect x="384.7" y="129.5" transform="matrix(0.9567 -0.291 0.291 0.9567 -22.0731 125.5863)" class="st0" width="53" height="15"/>
		<rect x="397.8" y="167.5" class="st0" width="40" height="61"/>
		
			<rect x="418.9" y="224.5" transform="matrix(0.1785 -0.9839 0.9839 0.1785 99.024 632.5923)" class="st0" width="19" height="65"/>
		<rect x="401.2" y="264" transform="matrix(0.2319 -0.9727 0.9727 0.2319 34.2275 629.4316)" class="st0" width="29" height="58"/>
		
			<rect x="383.3" y="303.6" transform="matrix(0.583 -0.8125 0.8125 0.583 -106.3372 462.9486)" class="st0" width="29" height="63"/>
		<circle class="st1" cx="237.8" cy="213.5" r="178"/>
	</g>
</g>
</svg>
