<svg id="Layer_1" data-name="Layer 1" xmlns="http://www.w3.org/2000/svg" viewBox="0 0 1001 801.5"><defs><style>.cls-1{fill:#ff7373;}.cls-2{fill:#125b80;}.cls-3{fill:#0b87b7;}.cls-4{fill:#146484;}.cls-5{fill:#116b8e;}</style></defs><title>feedback-image1</title><circle class="cls-1" cx="607.5" cy="221" r="221"/><path class="cls-2" d="M1000.5,900.5v99H.5v-145l-.33.21L-.5,510.5c66.68-102.08,117.84-122.44,153-121,19.37.8,22.35,7.73,42,7C231,395.15,255,370,275.54,345c21.52-26.22,39.12-52.27,63-50.48,25,1.88,39.95,33.13,56.06,63.4,5.78,10.87,11.71,21.62,18.31,30.83,10.71,14.94,23.18,25.86,39.63,26.77,28.9,1.59,34.43-29.69,62-28,56,3.44,50.54,133.5,141,176,24,11.29,52.22,15.18,69.58,42.34l.42.66c13.77,22,6.84,37.28,24,52q1.31,1.13,2.64,2.1c18.66,13.82,39.79,7.91,52.36,25.9,6,8.53,7,18.19,7,25l69.28,69.28Z" transform="translate(0.5 -198)"/><path class="cls-3" d="M1000.5,822.5v177H232.31c9.41-5.27,159.35-88.79,302.17-156.71,40-19,79.39-36.79,115-51.29,59.34-24.15,104.91-37.89,155-29,23.93,4.24,37.3,11.59,76.28,18.28q5.06.87,10.72,1.72c23.67,3.55,43.56,5,69,16A179.89,179.89,0,0,1,1000.5,822.5Z" transform="translate(0.5 -198)"/><path class="cls-4" d="M275.54,345c-8,37.48-19.67,78.14-34.54,92-67.59,63.09-45.63,87.23-51,122-11,71.12,27.24,93.8,6,144-9.75,23-30.88,39.06-73.14,71.11-20.4,15.47-57.21,33-122.36,80.36l-.33.21L-.5,510.5c66.68-102.08,117.84-122.44,153-121,19.37.8,22.35,7.73,42,7C231,395.15,255,370,275.54,345Z" transform="translate(0.5 -198)"/><path class="cls-5" d="M834.5,999.5H.5v-185a602.51,602.51,0,0,1,122.36-40.39A556.76,556.76,0,0,1,270.5,762.5c36.47,2,132,8.34,229,60,13.65,7.27,24.34,13.85,35,20.29,17.28,10.46,34.45,20.56,64,32.71,62.7,25.76,88.59,22.7,136,46C760.7,934.38,797.1,957.08,834.5,999.5Z" transform="translate(0.5 -198)"/></svg>